<svg width="1440" height="111" viewBox="0 0 1440 111" fill="none" xmlns="http://www.w3.org/2000/svg">
<g opacity="0.7">
<path d="M-10.1607 56.9717L-28.7905 80.8178L-10.1607 104.664L8.46904 80.8178L-10.1607 56.9717Z" fill="#EFD1A9"/>
<path d="M82.412 56.9717L63.7822 80.8178L82.412 104.664L101.042 80.8178L82.412 56.9717Z" fill="#EFD1A9"/>
<path d="M174.985 56.9717L156.355 80.8178L174.985 104.664L193.615 80.8178L174.985 56.9717Z" fill="#EFD1A9"/>
<path d="M267.557 56.9717L248.927 80.8178L267.557 104.664L286.187 80.8178L267.557 56.9717Z" fill="#EFD1A9"/>
<path d="M360.13 56.9717L341.5 80.8178L360.13 104.664L378.76 80.8178L360.13 56.9717Z" fill="#EFD1A9"/>
<path d="M452.703 56.9717L434.073 80.8178L452.703 104.664L471.333 80.8178L452.703 56.9717Z" fill="#EFD1A9"/>
<path d="M545.275 56.9717L526.646 80.8178L545.275 104.664L563.905 80.8178L545.275 56.9717Z" fill="#EFD1A9"/>
<path d="M637.848 56.9717L619.219 80.8178L637.848 104.664L656.478 80.8178L637.848 56.9717Z" fill="#EFD1A9"/>
<path d="M730.421 56.9717L711.791 80.8178L730.421 104.664L749.051 80.8178L730.421 56.9717Z" fill="#EFD1A9"/>
<path d="M822.994 56.9717L804.364 80.8178L822.994 104.664L841.623 80.8178L822.994 56.9717Z" fill="#EFD1A9"/>
<path d="M915.566 56.9717L896.937 80.8178L915.566 104.664L934.196 80.8178L915.566 56.9717Z" fill="#EFD1A9"/>
<path d="M1008.14 56.9717L989.509 80.8178L1008.14 104.664L1026.77 80.8178L1008.14 56.9717Z" fill="#EFD1A9"/>
<path d="M1100.71 56.9717L1082.08 80.8178L1100.71 104.664L1119.34 80.8178L1100.71 56.9717Z" fill="#EFD1A9"/>
<path d="M1193.28 56.9717L1174.65 80.8178L1193.28 104.664L1211.91 80.8178L1193.28 56.9717Z" fill="#EFD1A9"/>
<path d="M1285.86 56.9717L1267.23 80.8178L1285.86 104.664L1304.49 80.8178L1285.86 56.9717Z" fill="#EFD1A9"/>
<path d="M1378.43 56.9717L1359.8 80.8178L1378.43 104.664L1397.06 80.8178L1378.43 56.9717Z" fill="#EFD1A9"/>
</g>
<g opacity="0.4">
<path d="M50.9747 0L37.7466 16.932L50.9747 33.8639L64.2028 16.932L50.9747 0Z" fill="#EFD1A9"/>
<path d="M141.041 0L127.813 16.932L141.041 33.8639L154.269 16.932L141.041 0Z" fill="#EFD1A9"/>
<path d="M231.107 0L217.879 16.932L231.107 33.8639L244.335 16.932L231.107 0Z" fill="#EFD1A9"/>
<path d="M321.174 0L307.946 16.932L321.174 33.8639L334.402 16.932L321.174 0Z" fill="#EFD1A9"/>
<path d="M411.24 0L398.012 16.932L411.24 33.8639L424.468 16.932L411.24 0Z" fill="#EFD1A9"/>
<path d="M501.306 0L488.078 16.932L501.306 33.8639L514.534 16.932L501.306 0Z" fill="#EFD1A9"/>
<path d="M591.373 0L578.145 16.932L591.373 33.8639L604.601 16.932L591.373 0Z" fill="#EFD1A9"/>
<path d="M681.439 0L668.211 16.932L681.439 33.8639L694.667 16.932L681.439 0Z" fill="#EFD1A9"/>
<path d="M771.505 0L758.277 16.932L771.505 33.8639L784.734 16.932L771.505 0Z" fill="#EFD1A9"/>
<path d="M861.572 0L848.344 16.932L861.572 33.8639L874.8 16.932L861.572 0Z" fill="#EFD1A9"/>
<path d="M951.638 0L938.41 16.932L951.638 33.8639L964.866 16.932L951.638 0Z" fill="#EFD1A9"/>
<path d="M1041.7 0L1028.48 16.932L1041.7 33.8639L1054.93 16.932L1041.7 0Z" fill="#EFD1A9"/>
<path d="M1131.77 0L1118.54 16.932L1131.77 33.8639L1145 16.932L1131.77 0Z" fill="#EFD1A9"/>
<path d="M1221.84 0L1208.61 16.932L1221.84 33.8639L1235.07 16.932L1221.84 0Z" fill="#EFD1A9"/>
<path d="M1311.9 0L1298.68 16.932L1311.9 33.8639L1325.13 16.932L1311.9 0Z" fill="#EFD1A9"/>
<path d="M1401.97 0L1388.74 16.932L1401.97 33.8639L1415.2 16.932L1401.97 0Z" fill="#EFD1A9"/>
</g>
</svg>
