<svg width="165" height="41" viewBox="0 0 165 41" fill="none" xmlns="http://www.w3.org/2000/svg">
<g clip-path="url(#clip0_1149_21274)">
<path d="M155.441 0.754883H9.64798C9.28128 0.754883 8.91898 0.754883 8.55318 0.756883C8.24708 0.758783 7.94338 0.764683 7.63428 0.769483C6.96878 0.786083 6.29488 0.827183 5.63038 0.946283C4.96098 1.06348 4.33888 1.26368 3.72948 1.57328C3.13088 1.87988 2.58398 2.27828 2.11088 2.75198C1.63228 3.22558 1.23588 3.77438 0.932581 4.37308C0.621581 4.98148 0.424281 5.60648 0.307581 6.27638C0.186981 6.93848 0.145481 7.60838 0.128381 8.27838C0.119181 8.58498 0.118181 8.89258 0.113281 9.19918C0.113281 9.56148 0.113281 9.92478 0.113281 10.291V31.2197C0.113281 31.5889 0.113281 31.9502 0.113281 32.3135C0.118181 32.624 0.119181 32.9248 0.128381 33.2354C0.145481 33.9053 0.186981 34.5752 0.307581 35.2373C0.424281 35.9072 0.621581 36.5352 0.932581 37.1416C1.23578 37.7373 1.63228 38.2862 2.11078 38.7559C2.58388 39.2334 3.13078 39.6309 3.72948 39.9346C4.33888 40.2471 4.96088 40.4444 5.63038 40.5654C6.29488 40.6846 6.96878 40.7237 7.63428 40.7422C7.94338 40.749 8.24708 40.7529 8.55318 40.7529C8.91898 40.7549 9.28128 40.7549 9.64798 40.7549H155.441C155.8 40.7549 156.165 40.7549 156.525 40.7529C156.829 40.7529 157.142 40.749 157.447 40.7422C158.116 40.7237 158.788 40.6846 159.447 40.5654C160.116 40.4444 160.739 40.2471 161.355 39.9346C161.952 39.6309 162.499 39.2334 162.972 38.7559C163.448 38.2862 163.845 37.7373 164.154 37.1416C164.46 36.5352 164.659 35.9072 164.773 35.2373C164.896 34.5752 164.935 33.9053 164.958 33.2354C164.962 32.9248 164.962 32.624 164.962 32.3135C164.97 31.9502 164.97 31.5889 164.97 31.2197V10.291C164.97 9.92478 164.97 9.56148 164.962 9.19918C164.962 8.89258 164.962 8.58488 164.958 8.27828C164.935 7.60838 164.896 6.93848 164.773 6.27628C164.659 5.60638 164.46 4.98138 164.154 4.37298C163.845 3.77438 163.448 3.22548 162.972 2.75188C162.499 2.27828 161.952 1.87978 161.355 1.57318C160.739 1.26358 160.116 1.06338 159.447 0.946183C158.788 0.827083 158.116 0.785983 157.447 0.769383C157.142 0.764483 156.829 0.758683 156.525 0.756683C156.165 0.754883 155.8 0.754883 155.441 0.754883Z" fill="#A6A6A6"/>
<path d="M8.55998 39.8799C8.25528 39.8799 7.95798 39.876 7.65568 39.8692C7.09658 39.8535 6.43348 39.8223 5.78658 39.7061C5.17618 39.5957 4.63378 39.416 4.12988 39.1582C3.60838 38.8936 3.13968 38.5518 2.73288 38.1416C2.31878 37.7354 1.97848 37.2686 1.71238 36.7451C1.45308 36.2403 1.27588 35.6983 1.16938 35.0879C1.04728 34.4151 1.01608 33.7324 1.00288 33.2129C0.996581 33.002 0.988281 32.2998 0.988281 32.2998V9.19918C0.988281 9.19918 0.997081 8.50778 1.00288 8.30468C1.01608 7.78078 1.04728 7.09868 1.16838 6.43258C1.27538 5.81888 1.45258 5.27738 1.71188 4.77048C1.97748 4.24608 2.31828 3.77688 2.72698 3.37258C3.14058 2.95848 3.61128 2.61578 4.12928 2.35008C4.64298 2.08938 5.18448 1.91108 5.78258 1.80618C6.45588 1.68558 7.13858 1.65528 7.65808 1.64208L8.56048 1.62988H156.522L157.435 1.64258C157.947 1.65528 158.63 1.68558 159.293 1.80518C159.896 1.91068 160.441 2.08988 160.964 2.35308C161.477 2.61578 161.946 2.95858 162.356 3.36868C162.765 3.77488 163.107 4.24658 163.379 4.77298C163.637 5.28418 163.813 5.82568 163.914 6.42188C164.03 7.05278 164.066 7.70068 164.088 8.30908C164.091 8.59228 164.091 8.89648 164.091 9.19918C164.099 9.57418 164.099 9.93108 164.099 10.291V31.2197C164.099 31.583 164.099 31.9375 164.091 32.2949C164.091 32.6201 164.091 32.918 164.087 33.2246C164.066 33.8135 164.03 34.461 163.916 35.0781C163.813 35.6914 163.637 36.2334 163.376 36.7481C163.107 37.2676 162.764 37.7373 162.36 38.1338C161.947 38.5518 161.479 38.8926 160.961 39.1563C160.442 39.4199 159.913 39.5947 159.293 39.7061C158.652 39.8223 157.989 39.8535 157.424 39.8692C157.131 39.876 156.824 39.8799 156.526 39.8799L155.442 39.8819L8.55998 39.8799Z" fill="black"/>
<path fill-rule="evenodd" clip-rule="evenodd" d="M32.2943 29.9831C32.0497 30.6044 31.4853 31.4792 30.6849 32.0954C30.2228 32.4513 29.6711 32.7915 28.9133 33.016C28.1055 33.2554 27.1105 33.3363 25.8721 33.3363H14.5488C13.3105 33.3363 12.3155 33.2554 11.5076 33.016C10.7498 32.7915 10.1982 32.4513 9.73601 32.0954C8.93571 31.4791 8.37121 30.6044 8.12661 29.9831C7.63391 28.7313 7.62891 27.311 7.62891 26.4165V15.0931C7.62891 14.1986 7.63391 12.7783 8.12661 11.5265C8.37121 10.9052 8.93561 10.0304 9.73601 9.41424C10.1981 9.05834 10.7498 8.71814 11.5076 8.49364C12.3154 8.25424 13.3104 8.17334 14.5488 8.17334H25.8722C27.1105 8.17334 28.1055 8.25424 28.9134 8.49364C29.6712 8.71814 30.2228 9.05844 30.685 9.41424C31.4853 10.0305 32.0498 10.9052 32.2944 11.5265C32.7871 12.7783 32.7921 14.1986 32.7921 15.0931V26.4165C32.792 27.3109 32.787 28.7312 32.2943 29.9831Z" fill="url(#paint0_linear_1149_21274)"/>
<path d="M22.0337 22.6367C21.6561 22.2383 20.9929 21.9829 20.21 21.9829C19.427 21.9829 18.7638 22.2383 18.3862 22.6367C18.1892 22.8446 18.085 23.0577 18.0522 23.3613C17.9886 23.9492 18.0243 24.4554 18.0932 25.2647C18.1588 26.0359 18.2834 27.0643 18.446 28.1117C18.5617 28.8571 18.6557 29.2594 18.7413 29.5475C18.8801 30.0144 19.3988 30.4227 20.21 30.4227C21.0211 30.4227 21.5398 30.0143 21.6786 29.5475C21.7642 29.2594 21.8582 28.8571 21.9739 28.1117C22.1365 27.0643 22.2611 26.0359 22.3267 25.2647C22.3956 24.4553 22.4313 23.9491 22.3677 23.3613C22.3349 23.0578 22.2307 22.8446 22.0337 22.6367ZM18.1526 19.0894C18.1526 20.2267 19.0746 21.1487 20.2119 21.1487C21.3493 21.1487 22.2713 20.2267 22.2713 19.0894C22.2713 17.952 21.3493 17.03 20.2119 17.03C19.0746 17.03 18.1526 17.952 18.1526 19.0894ZM20.1864 10.9624C15.3701 10.9761 11.4236 14.8834 11.364 19.6994C11.3156 23.6007 13.806 26.9379 17.2835 28.1611C17.3679 28.1908 17.4536 28.1207 17.4403 28.0322C17.3947 27.7293 17.3517 27.4249 17.3122 27.1256C17.2982 27.0198 17.2308 26.9286 17.1331 26.8859C14.3845 25.6851 12.4652 22.9285 12.496 19.7354C12.5364 15.545 15.9582 12.1288 20.1486 12.0949C24.4325 12.0603 27.9286 15.5351 27.9286 19.8111C27.9286 22.9722 26.0177 25.695 23.2905 26.8862C23.1928 26.9289 23.1258 27.0204 23.1119 27.1261C23.0724 27.4253 23.0294 27.7296 22.9839 28.0322C22.9705 28.1207 23.0562 28.1908 23.1406 28.1612C26.5849 26.9497 29.0608 23.6644 29.0608 19.8112C29.0606 14.9233 25.0773 10.9484 20.1864 10.9624ZM20.0265 15.0219C22.7568 14.9162 25.0116 17.1066 25.0116 19.8138C25.0116 21.1906 24.4283 22.4336 23.496 23.309C23.4169 23.3832 23.3744 23.4886 23.3805 23.5969C23.3991 23.9262 23.3923 24.2462 23.3704 24.6076C23.3645 24.7039 23.4725 24.7654 23.5522 24.7111C25.1156 23.6427 26.1439 21.8462 26.1439 19.8138C26.1439 16.4674 23.3565 13.7597 19.9816 13.8905C16.8452 14.0121 14.3289 16.598 14.2887 19.7366C14.2623 21.8008 15.2969 23.6295 16.8804 24.7113C16.9599 24.7656 17.0676 24.704 17.0617 24.6078C17.0397 24.2462 17.033 23.9262 17.0515 23.5969C17.0576 23.4887 17.0152 23.3833 16.9363 23.3092C15.9749 22.4066 15.3845 21.1131 15.4221 19.6851C15.4883 17.1721 17.5144 15.1192 20.0265 15.0219Z" fill="white"/>
<path d="M46.3359 28.5771H41.6025L40.4658 31.9335H38.4609L42.9443 19.5146H45.0273L49.5107 31.9335H47.4716L46.3359 28.5771ZM42.0927 27.0282H45.8447L43.9951 21.58H43.9433L42.0927 27.0282Z" fill="white"/>
<path d="M59.1924 27.4072C59.1924 30.2207 57.6865 32.0283 55.4141 32.0283C54.1241 32.0283 53.0996 31.4512 52.5655 30.4443H52.5225V34.9287H50.6641V22.8799H52.4629V24.3858H52.4971C53.0137 23.4141 54.1153 22.7852 55.3799 22.7852C57.6777 22.7852 59.1924 24.6016 59.1924 27.4072ZM57.2822 27.4072C57.2822 25.5742 56.3349 24.3691 54.8896 24.3691C53.4697 24.3691 52.5146 25.5996 52.5146 27.4072C52.5146 29.2314 53.4697 30.4531 54.8896 30.4531C56.335 30.4531 57.2822 29.2569 57.2822 27.4072Z" fill="white"/>
<path d="M69.1572 27.4072C69.1572 30.2207 67.6513 32.0283 65.3789 32.0283C64.0889 32.0283 63.0645 31.4512 62.5303 30.4443H62.4873V34.9287H60.6289V22.8799H62.4277V24.3858H62.4619C62.9785 23.4141 64.0801 22.7852 65.3447 22.7852C67.6426 22.7852 69.1572 24.6016 69.1572 27.4072ZM67.2471 27.4072C67.2471 25.5742 66.2998 24.3691 64.8545 24.3691C63.4346 24.3691 62.4795 25.5996 62.4795 27.4072C62.4795 29.2314 63.4346 30.4531 64.8545 30.4531C66.2998 30.4531 67.2471 29.2569 67.2471 27.4072Z" fill="white"/>
<path d="M70.6641 19.5146H72.5235V31.9335H70.6641V19.5146Z" fill="white"/>
<path d="M82.1982 29.2744C81.9482 30.918 80.3477 32.0459 78.2999 32.0459C75.6661 32.0459 74.0312 30.2813 74.0312 27.4502C74.0312 24.6104 75.6749 22.7686 78.2217 22.7686C80.7266 22.7686 82.3018 24.4893 82.3018 27.2344V27.8711H75.9072V27.9834C75.9072 29.5322 76.88 30.5479 78.3428 30.5479C79.375 30.5479 80.1846 30.0577 80.4336 29.2745L82.1982 29.2744ZM75.916 26.5723H80.4424C80.3994 25.1866 79.5127 24.2744 78.2217 24.2744C76.9395 24.2744 76.0108 25.2041 75.916 26.5723Z" fill="white"/>
<path d="M92.1992 19.5146C94.6084 19.5146 96.2871 21.1757 96.2871 23.5947C96.2871 26.0215 94.5742 27.6904 92.1387 27.6904H89.4707V31.9336H87.543V19.5146H92.1992ZM89.4707 26.0732H91.6826C93.3603 26.0732 94.3154 25.1689 94.3154 23.6035C94.3154 22.0371 93.3603 21.1411 91.6914 21.1411H89.4707V26.0732Z" fill="white"/>
<path d="M96.9648 27.4073C96.9648 24.5587 98.6425 22.7686 101.259 22.7686C103.884 22.7686 105.554 24.5586 105.554 27.4073C105.554 30.2637 103.893 32.046 101.259 32.046C98.6259 32.046 96.9648 30.2638 96.9648 27.4073ZM103.66 27.4073C103.66 25.4532 102.765 24.2999 101.259 24.2999C99.7528 24.2999 98.8573 25.462 98.8573 27.4073C98.8573 29.3692 99.7528 30.5137 101.259 30.5137C102.765 30.5137 103.66 29.3693 103.66 27.4073Z" fill="white"/>
<path d="M106.859 27.4072C106.859 24.6103 108.399 22.7851 110.645 22.7851C111.945 22.7851 112.97 23.3876 113.485 24.3857H113.52V19.5146H115.388V31.9335H113.58V30.3935H113.546C113.013 31.4257 111.979 32.0283 110.663 32.0283C108.399 32.0283 106.859 30.2041 106.859 27.4072ZM108.761 27.4072C108.761 29.2656 109.708 30.4531 111.153 30.4531C112.582 30.4531 113.537 29.248 113.537 27.4072C113.537 25.582 112.582 24.3691 111.153 24.3691C109.708 24.3692 108.761 25.5654 108.761 27.4072Z" fill="white"/>
<path d="M123.297 25.9951C123.134 25.04 122.385 24.3262 121.163 24.3262C119.734 24.3262 118.787 25.5225 118.787 27.4073C118.787 29.335 119.743 30.4962 121.18 30.4962C122.333 30.4962 123.091 29.92 123.297 28.8702H125.087C124.881 30.7716 123.357 32.046 121.163 32.046C118.581 32.046 116.895 30.2814 116.895 27.4073C116.895 24.5928 118.581 22.7686 121.146 22.7686C123.469 22.7686 124.915 24.2315 125.07 25.9952L123.297 25.9951Z" fill="white"/>
<path d="M126.227 29.3605C126.227 27.7775 127.439 26.8214 129.591 26.6925L132.069 26.5548V25.8663C132.069 24.8595 131.407 24.2911 130.28 24.2911C129.247 24.2911 128.524 24.7823 128.378 25.5655H126.64C126.691 23.9298 128.214 22.7686 130.331 22.7686C132.491 22.7686 133.92 23.9473 133.92 25.7286V31.9337H132.139V30.4444H132.096C131.57 31.4512 130.426 32.0889 129.238 32.0889C127.466 32.089 126.227 30.9874 126.227 29.3605ZM132.069 28.5431V27.8458L129.841 27.9835C128.73 28.0528 128.103 28.5343 128.103 29.3087C128.103 30.1007 128.757 30.6173 129.755 30.6173C131.055 30.6173 132.069 29.7218 132.069 28.5431Z" fill="white"/>
<path d="M139.105 22.7773C141.111 22.7773 142.548 23.8867 142.591 25.4873H140.844C140.767 24.6875 140.087 24.1973 139.054 24.1973C138.047 24.1973 137.376 24.6612 137.376 25.3672C137.376 25.9092 137.823 26.2705 138.762 26.5029L140.285 26.8564C142.109 27.2949 142.798 27.9658 142.798 29.2919C142.798 30.9267 141.249 32.0458 139.037 32.0458C136.902 32.0458 135.466 30.952 135.328 29.2997H137.169C137.299 30.1688 137.995 30.6337 139.123 30.6337C140.233 30.6337 140.931 30.1776 140.931 29.455C140.931 28.8954 140.586 28.5946 139.64 28.3534L138.021 27.9579C136.386 27.5614 135.56 26.7265 135.56 25.4706C135.56 23.87 136.997 22.7773 139.105 22.7773Z" fill="white"/>
<path d="M146.836 20.7368V22.8799H148.558V24.3516H146.836V29.3428C146.836 30.1182 147.181 30.4795 147.938 30.4795C148.127 30.4795 148.429 30.4531 148.549 30.4365V31.8994C148.343 31.9512 147.93 31.9853 147.517 31.9853C145.684 31.9853 144.969 31.2968 144.969 29.541V24.3515H143.652V22.8799H144.969V20.7368H146.836Z" fill="white"/>
<path d="M153.555 22.7773C155.561 22.7773 156.997 23.8867 157.04 25.4873H155.293C155.216 24.6875 154.536 24.1973 153.503 24.1973C152.496 24.1973 151.825 24.6612 151.825 25.3672C151.825 25.9092 152.273 26.2705 153.211 26.5029L154.734 26.8564C156.559 27.2949 157.247 27.9658 157.247 29.2919C157.247 30.9267 155.698 32.0458 153.486 32.0458C151.352 32.0458 149.915 30.952 149.777 29.2997H151.618C151.748 30.1688 152.444 30.6337 153.572 30.6337C154.683 30.6337 155.38 30.1776 155.38 29.455C155.38 28.8954 155.035 28.5946 154.089 28.3534L152.471 27.9579C150.835 27.5614 150.009 26.7265 150.009 25.4706C150.009 23.87 151.446 22.7773 153.555 22.7773Z" fill="white"/>
<path d="M43.0694 15.416H39.3477V9.44922H40.274V14.5639H43.0694V15.416Z" fill="white"/>
<path d="M44.1445 9.58154C44.1445 9.27104 44.3886 9.03564 44.7192 9.03564C45.0503 9.03564 45.2939 9.27104 45.2939 9.58154C45.2939 9.88724 45.0502 10.123 44.7192 10.123C44.3886 10.123 44.1445 9.88714 44.1445 9.58154ZM44.2768 10.913H45.1616V15.4159H44.2768V10.913Z" fill="white"/>
<path d="M48.2404 10.8262C49.2536 10.8262 49.9152 11.2974 50.0016 12.0913H49.15C49.067 11.7607 48.7447 11.5498 48.2403 11.5498C47.7437 11.5498 47.3677 11.7852 47.3677 12.1367C47.3677 12.4057 47.5952 12.5752 48.083 12.687L48.8315 12.8603C49.6875 13.059 50.0883 13.4272 50.0883 14.0888C50.0883 14.9365 49.2987 15.5029 48.2236 15.5029C47.1523 15.5029 46.4536 15.019 46.375 14.2212H47.2642C47.376 14.5684 47.7066 14.7832 48.2442 14.7832C48.7984 14.7832 49.1915 14.5352 49.1915 14.1753C49.1915 13.9067 48.9806 13.7329 48.5294 13.6255L47.7438 13.4434C46.8878 13.2408 46.4909 12.8565 46.4909 12.1866C46.4909 11.3882 47.2228 10.8262 48.2404 10.8262Z" fill="white"/>
<path d="M52.4561 9.79199V10.9336H53.4317V11.6821H52.4561V13.9975C52.4561 14.4692 52.6504 14.6757 53.0928 14.6757C53.229 14.6757 53.3076 14.6674 53.4317 14.6552V15.3954C53.2872 15.4198 53.1216 15.4408 52.9478 15.4408C51.9595 15.4408 51.5669 15.0931 51.5669 14.225V11.682H50.8516V10.9335H51.5669V9.79199H52.4561Z" fill="white"/>
<path d="M58.3638 14.2002C58.1612 15.0068 57.4414 15.5029 56.4121 15.5029C55.1216 15.5029 54.332 14.6181 54.332 13.1787C54.332 11.7397 55.1382 10.8262 56.4077 10.8262C57.6606 10.8262 58.4175 11.6822 58.4175 13.0962V13.4063H55.2373V13.4561C55.2666 14.2457 55.7256 14.7461 56.4365 14.7461C56.9741 14.7461 57.3423 14.5518 57.5078 14.2002H58.3638ZM55.2374 12.749H57.5118C57.4913 12.042 57.0611 11.5825 56.4039 11.5825C55.7462 11.5825 55.2872 12.0459 55.2374 12.749Z" fill="white"/>
<path d="M59.6094 10.9131H60.4654V11.6284H60.5318C60.7506 11.1279 61.1973 10.8262 61.8756 10.8262C62.8805 10.8262 63.4347 11.4297 63.4347 12.501V15.416H62.5455V12.7241C62.5455 12.0005 62.231 11.6406 61.5738 11.6406C60.9161 11.6406 60.4986 12.0791 60.4986 12.7817V15.416H59.6094V10.9131Z" fill="white"/>
<path d="M67.0312 13.1626C67.0312 11.7109 67.8418 10.8262 69.1568 10.8262C70.4673 10.8262 71.2779 11.711 71.2779 13.1626C71.2779 14.6221 70.4717 15.5029 69.1568 15.5029C67.8374 15.5029 67.0312 14.6221 67.0312 13.1626ZM70.3643 13.1626C70.3643 12.1865 69.9258 11.6157 69.1568 11.6157C68.3834 11.6157 67.9493 12.1865 67.9493 13.1626C67.9493 14.1465 68.3834 14.7129 69.1568 14.7129C69.9258 14.7129 70.3643 14.1426 70.3643 13.1626Z" fill="white"/>
<path d="M72.4688 10.9131H73.3248V11.6284H73.3912C73.6104 11.1279 74.0566 10.8262 74.7349 10.8262C75.7398 10.8262 76.2941 11.4297 76.2941 12.501V15.416H75.4048V12.7241C75.4048 12.0005 75.0904 11.6406 74.4332 11.6406C73.7755 11.6406 73.3579 12.0791 73.3579 12.7817V15.416H72.4688V10.9131Z" fill="white"/>
</g>
<defs>
<linearGradient id="paint0_linear_1149_21274" x1="20.2105" y1="8.17334" x2="20.2105" y2="33.3363" gradientUnits="userSpaceOnUse">
<stop stop-color="#F452FF"/>
<stop offset="1" stop-color="#832BC1"/>
</linearGradient>
<clipPath id="clip0_1149_21274">
<rect width="164.857" height="40" fill="white" transform="translate(0.113281 0.754883)"/>
</clipPath>
</defs>
</svg>
