<svg width="1440" height="188" viewBox="0 0 1440 188" fill="none" xmlns="http://www.w3.org/2000/svg">
<g opacity="0.2">
<path d="M-7.61572 127.897L-34.8882 162.806L-7.61572 197.715L19.6567 162.806L-7.61572 127.897Z" fill="#7767B3"/>
<path d="M88.4143 127.897L61.1418 162.806L88.4143 197.715L115.687 162.806L88.4143 127.897Z" fill="#7767B3"/>
<path d="M184.444 127.897L157.171 162.806L184.444 197.715L211.716 162.806L184.444 127.897Z" fill="#7767B3"/>
<path d="M280.474 127.897L253.201 162.806L280.474 197.715L307.746 162.806L280.474 127.897Z" fill="#7767B3"/>
<path d="M376.503 127.897L349.231 162.806L376.503 197.715L403.776 162.806L376.503 127.897Z" fill="#7767B3"/>
<path d="M472.533 127.897L445.261 162.806L472.533 197.715L499.806 162.806L472.533 127.897Z" fill="#7767B3"/>
<path d="M568.563 127.897L541.291 162.806L568.563 197.715L595.835 162.806L568.563 127.897Z" fill="#7767B3"/>
<path d="M664.593 127.897L637.32 162.806L664.593 197.715L691.865 162.806L664.593 127.897Z" fill="#7767B3"/>
<path d="M760.623 127.897L733.35 162.806L760.623 197.715L787.895 162.806L760.623 127.897Z" fill="#7767B3"/>
<path d="M856.652 127.897L829.38 162.806L856.652 197.715L883.925 162.806L856.652 127.897Z" fill="#7767B3"/>
<path d="M952.682 127.897L925.41 162.806L952.682 197.715L979.955 162.806L952.682 127.897Z" fill="#7767B3"/>
<path d="M1048.71 127.897L1021.44 162.806L1048.71 197.715L1075.98 162.806L1048.71 127.897Z" fill="#7767B3"/>
<path d="M1144.74 127.897L1117.47 162.806L1144.74 197.715L1172.01 162.806L1144.74 127.897Z" fill="#7767B3"/>
<path d="M1240.77 127.897L1213.5 162.806L1240.77 197.715L1268.04 162.806L1240.77 127.897Z" fill="#7767B3"/>
<path d="M1336.8 127.897L1309.53 162.806L1336.8 197.715L1364.07 162.806L1336.8 127.897Z" fill="#7767B3"/>
<path d="M1432.83 127.897L1405.56 162.806L1432.83 197.715L1460.1 162.806L1432.83 127.897Z" fill="#7767B3"/>
<g opacity="0.7">
<path d="M64.5995 57.0967L45.9697 80.9428L64.5995 104.789L83.2293 80.9428L64.5995 57.0967Z" fill="#7767B3"/>
<path d="M157.172 57.0967L138.542 80.9428L157.172 104.789L175.802 80.9428L157.172 57.0967Z" fill="#7767B3"/>
<path d="M249.745 57.0967L231.115 80.9428L249.745 104.789L268.375 80.9428L249.745 57.0967Z" fill="#7767B3"/>
<path d="M342.318 57.0967L323.688 80.9428L342.318 104.789L360.947 80.9428L342.318 57.0967Z" fill="#7767B3"/>
<path d="M434.891 57.0967L416.261 80.9428L434.891 104.789L453.52 80.9428L434.891 57.0967Z" fill="#7767B3"/>
<path d="M527.463 57.0967L508.833 80.9428L527.463 104.789L546.093 80.9428L527.463 57.0967Z" fill="#7767B3"/>
<path d="M620.036 57.0967L601.406 80.9428L620.036 104.789L638.666 80.9428L620.036 57.0967Z" fill="#7767B3"/>
<path d="M712.608 57.0967L693.979 80.9428L712.608 104.789L731.238 80.9428L712.608 57.0967Z" fill="#7767B3"/>
<path d="M805.181 57.0967L786.551 80.9428L805.181 104.789L823.811 80.9428L805.181 57.0967Z" fill="#7767B3"/>
<path d="M897.754 57.0967L879.124 80.9428L897.754 104.789L916.384 80.9428L897.754 57.0967Z" fill="#7767B3"/>
<path d="M990.326 57.0967L971.697 80.9428L990.326 104.789L1008.96 80.9428L990.326 57.0967Z" fill="#7767B3"/>
<path d="M1082.9 57.0967L1064.27 80.9428L1082.9 104.789L1101.53 80.9428L1082.9 57.0967Z" fill="#7767B3"/>
<path d="M1175.47 57.0967L1156.84 80.9428L1175.47 104.789L1194.1 80.9428L1175.47 57.0967Z" fill="#7767B3"/>
<path d="M1268.04 57.0967L1249.41 80.9428L1268.04 104.789L1286.67 80.9428L1268.04 57.0967Z" fill="#7767B3"/>
<path d="M1360.62 57.0967L1341.99 80.9428L1360.62 104.789L1379.25 80.9428L1360.62 57.0967Z" fill="#7767B3"/>
<path d="M1453.19 57.0967L1434.56 80.9428L1453.19 104.789L1471.82 80.9428L1453.19 57.0967Z" fill="#7767B3"/>
</g>
<g opacity="0.4">
<path d="M33.1622 0.125L19.9341 17.057L33.1622 33.9889L46.3903 17.057L33.1622 0.125Z" fill="#7767B3"/>
<path d="M123.229 0.125L110 17.057L123.229 33.9889L136.457 17.057L123.229 0.125Z" fill="#7767B3"/>
<path d="M213.295 0.125L200.067 17.057L213.295 33.9889L226.523 17.057L213.295 0.125Z" fill="#7767B3"/>
<path d="M303.361 0.125L290.133 17.057L303.361 33.9889L316.59 17.057L303.361 0.125Z" fill="#7767B3"/>
<path d="M393.428 0.125L380.199 17.057L393.428 33.9889L406.656 17.057L393.428 0.125Z" fill="#7767B3"/>
<path d="M483.494 0.125L470.266 17.057L483.494 33.9889L496.722 17.057L483.494 0.125Z" fill="#7767B3"/>
<path d="M573.56 0.125L560.332 17.057L573.56 33.9889L586.788 17.057L573.56 0.125Z" fill="#7767B3"/>
<path d="M663.627 0.125L650.398 17.057L663.627 33.9889L676.855 17.057L663.627 0.125Z" fill="#7767B3"/>
<path d="M753.693 0.125L740.465 17.057L753.693 33.9889L766.921 17.057L753.693 0.125Z" fill="#7767B3"/>
<path d="M843.759 0.125L830.531 17.057L843.759 33.9889L856.987 17.057L843.759 0.125Z" fill="#7767B3"/>
<path d="M933.826 0.125L920.598 17.057L933.826 33.9889L947.054 17.057L933.826 0.125Z" fill="#7767B3"/>
<path d="M1023.89 0.125L1010.66 17.057L1023.89 33.9889L1037.12 17.057L1023.89 0.125Z" fill="#7767B3"/>
<path d="M1113.96 0.125L1100.73 17.057L1113.96 33.9889L1127.19 17.057L1113.96 0.125Z" fill="#7767B3"/>
<path d="M1204.02 0.125L1190.8 17.057L1204.02 33.9889L1217.25 17.057L1204.02 0.125Z" fill="#7767B3"/>
<path d="M1294.09 0.125L1280.86 17.057L1294.09 33.9889L1307.32 17.057L1294.09 0.125Z" fill="#7767B3"/>
<path d="M1384.16 0.125L1370.93 17.057L1384.16 33.9889L1397.39 17.057L1384.16 0.125Z" fill="#7767B3"/>
</g>
</g>
</svg>
