<svg width="132" height="62" viewBox="0 0 132 62" fill="none" xmlns="http://www.w3.org/2000/svg">
<path d="M54.9974 21.6807L49.9399 28.1707L54.9974 34.6607L60.0549 28.1707L54.9974 21.6807Z" fill="#E3AD64"/>
<path d="M59.9353 1.19824V14.4743H59.3285C58.5546 6.57496 44.0244 4.80524 44.0244 17.4989V34.9194L49.6631 42.1559H28.425L34.0347 34.9194V8.43477L29.2534 2.16354H29.2374L28.425 1.23042V13.242H27.8919C26.3988 10.5295 24.09 8.22884 21.6753 6.62644C21.6464 6.61035 21.6014 6.5814 21.5725 6.56531C18.9523 4.85995 15.5036 3.82386 12.7517 3.82386C11.0209 3.89786 9.67224 4.432 8.69607 5.41017C7.71669 6.46234 7.2575 7.73976 7.2575 9.40007C7.2575 10.8384 8.3846 12.3217 9.50848 13.1519C10.6324 13.9692 11.5507 14.3681 13.2076 14.9763L19.5271 17.2029C21.3927 17.8561 22.8409 18.6122 24.2474 19.4134C25.9171 20.3627 27.2529 21.6819 28.4507 23.2553C29.5906 24.8416 30.1076 26.946 30.1076 29.5137C30.1076 31.9141 29.5874 33.9476 28.5245 35.682C27.3974 37.4195 26.052 38.8546 24.3951 39.91C24.379 39.9261 24.363 39.9261 24.3501 39.9422C21.9546 41.4512 19.1257 42.1656 16.2839 42.1656H0.809647V26.3572H1.40049C1.47434 26.6081 1.60921 26.8302 1.69591 27.0683C2.67529 29.3818 6.15289 36.6794 11.2425 38.6937C12.5879 39.3018 13.9237 39.6751 15.2981 39.7941C15.6256 39.8231 15.966 39.8392 16.2903 39.8392C18.005 39.8392 19.5142 39.3791 20.7119 38.4749C21.9257 37.6415 22.5166 36.2933 22.5166 34.337C22.5166 32.6767 21.9996 31.3993 20.9496 30.4983C19.8096 29.5909 18.461 28.7608 16.8041 28.0818L13.2365 26.7015C11.3581 26.0322 7.79054 24.5521 6.13363 23.5707C4.47671 22.5185 3.12805 21.1542 2.07802 19.4199C0.957356 17.766 0.424316 15.4943 0.424316 12.7947C0.424316 11.2084 0.809647 9.7701 1.40049 8.34789C2.08124 6.99969 3.05741 5.70619 4.25514 4.65401C5.45288 3.60184 6.89144 2.77168 8.62222 2.08954C10.3562 1.49749 12.2347 1.20146 14.3347 1.20146H44.0244V9.67357L50.2796 1.19824H59.9353Z" fill="#E3AD64"/>
<path d="M109.959 42.1541H131.686L126.047 34.9176V13.533C126.047 13.34 126.047 13.134 126.031 12.941C126.015 12.2299 125.973 11.5316 125.883 10.8495C125.854 10.6403 125.825 10.4344 125.78 10.2253C124.641 4.66191 119.875 0.437114 114.076 0.141088C113.854 0.125 113.646 0.125 113.424 0.125C112.432 0.125 111.456 0.256924 110.464 0.478943C110.406 0.495032 110.332 0.507902 110.271 0.523991C109.988 0.581909 109.722 0.655915 109.442 0.733139C108.081 1.10317 106.809 1.6373 105.682 2.31945C104.485 2.9855 103.345 3.81566 102.368 4.64904C101.318 5.5532 100.49 6.57642 99.7482 7.55781C97.9725 3.55181 94.1673 0.646262 89.6236 0.186136C89.447 0.170047 89.2672 0.157177 89.0906 0.157177C88.853 0.128218 88.6025 0.128218 88.352 0.128218C88.1305 0.128218 87.9089 0.128218 87.6874 0.144306C85.2758 0.218312 83.0538 0.810363 81.1014 1.86254C79.0014 2.98872 77.1935 4.57503 75.5527 6.46058V1.19327H59.9372L65.5469 8.43623V34.9176L59.9243 42.1541H81.1913L75.5527 34.9176V9.69112C75.877 9.35005 76.2045 9.02506 76.5449 8.71295C76.7087 8.56494 76.8692 8.41692 77.033 8.29787C77.2545 8.08872 77.4922 7.91175 77.7426 7.73478C77.7876 7.70582 77.8325 7.67686 77.8743 7.64469C79.178 6.75661 80.761 6.23535 82.4629 6.23535C86.724 6.23535 90.2177 9.4691 90.6319 13.6199C90.6608 13.903 90.6769 14.183 90.6769 14.4661C90.7058 15.0743 90.7218 15.7114 90.7218 16.3935V34.9176L85.0832 42.1541H106.44L100.801 34.9176V13.533C100.801 13.356 100.801 13.163 100.785 12.9828C100.769 12.1687 100.728 11.3675 100.577 10.6242C100.561 10.4601 100.519 10.2993 100.487 10.1512C100.503 10.1352 100.516 10.1062 100.545 10.0933C100.782 9.82626 101.033 9.57528 101.27 9.32109C101.713 8.89314 102.16 8.49093 102.603 8.14986C102.779 8.00185 102.959 7.85383 103.152 7.73478C103.255 7.66077 103.374 7.58677 103.476 7.52563C104.748 6.72443 106.228 6.26431 107.827 6.26431C110.624 6.26431 113.11 7.67364 114.59 9.82304C115.434 11.0554 115.833 12.5516 115.922 14.0511C116.012 15.6084 116.054 17.1786 116.054 18.736V34.9176L109.956 42.1541H109.959Z" fill="#E3AD64"/>
<path d="M3.38256 57.7142C2.96188 57.7142 2.57167 57.635 2.21195 57.4765C1.85224 57.3118 1.54129 57.0954 1.27913 56.8271L1.73639 56.2967C1.94979 56.5223 2.19976 56.7052 2.48632 56.8454C2.77897 56.9796 3.08077 57.0466 3.39171 57.0466C3.78801 57.0466 4.0959 56.9582 4.31539 56.7814C4.53488 56.5985 4.64463 56.3607 4.64463 56.0681C4.64463 55.8608 4.5989 55.6962 4.50745 55.5742C4.42209 55.4523 4.3032 55.3486 4.15078 55.2633C4.00445 55.1779 3.83678 55.0926 3.64778 55.0072L2.78811 54.6322C2.59911 54.553 2.4101 54.4493 2.2211 54.3213C2.03819 54.1933 1.88272 54.0286 1.75469 53.8274C1.63275 53.6263 1.57178 53.3793 1.57178 53.0867C1.57178 52.7818 1.65104 52.5105 1.80956 52.2727C1.97417 52.0289 2.19976 51.8399 2.48632 51.7057C2.77287 51.5655 3.09601 51.4954 3.45573 51.4954C3.81544 51.4954 4.14773 51.5655 4.45257 51.7057C4.75742 51.8399 5.01654 52.0167 5.22993 52.2362L4.81839 52.73C4.63548 52.5532 4.43123 52.416 4.20565 52.3185C3.98616 52.2148 3.73618 52.163 3.45573 52.163C3.1204 52.163 2.84908 52.2423 2.64179 52.4008C2.44059 52.5593 2.33999 52.7727 2.33999 53.0409C2.33999 53.23 2.38877 53.3885 2.48632 53.5165C2.58996 53.6384 2.718 53.739 2.87042 53.8183C3.02284 53.8976 3.17832 53.9707 3.33684 54.0378L4.18736 54.4036C4.41904 54.5012 4.62634 54.62 4.80924 54.7603C4.99825 54.8944 5.14762 55.0621 5.25737 55.2633C5.36711 55.4584 5.42198 55.7053 5.42198 56.0041C5.42198 56.3211 5.33967 56.6107 5.17506 56.8729C5.01044 57.1289 4.77571 57.3332 4.47086 57.4856C4.16602 57.638 3.80325 57.7142 3.38256 57.7142ZM6.53022 57.6045V51.093H7.28014V52.8672L7.2527 53.7817C7.46609 53.5805 7.68863 53.4098 7.92032 53.2696C8.1581 53.1233 8.42941 53.0501 8.73425 53.0501C9.20372 53.0501 9.54514 53.1995 9.75854 53.4982C9.97803 53.7909 10.0878 54.2207 10.0878 54.7877V57.6045H9.33785V54.8883C9.33785 54.4737 9.27078 54.1719 9.13665 53.9829C9.00252 53.7939 8.78913 53.6994 8.49647 53.6994C8.27089 53.6994 8.06664 53.7573 7.88373 53.8732C7.70692 53.989 7.50572 54.1597 7.28014 54.3853V57.6045H6.53022ZM11.5048 57.6045V53.1598H12.1267L12.1907 53.9646H12.2181C12.3706 53.6842 12.5565 53.4616 12.776 53.297C12.9955 53.1324 13.2302 53.0501 13.4802 53.0501C13.657 53.0501 13.8155 53.0806 13.9558 53.1415L13.8094 53.8C13.7363 53.7756 13.6692 53.7573 13.6082 53.7451C13.5473 53.7329 13.4711 53.7269 13.3796 53.7269C13.1906 53.7269 12.9925 53.8031 12.7852 53.9555C12.584 54.1079 12.4071 54.3731 12.2547 54.7511V57.6045H11.5048ZM14.6753 57.6045V53.1598H15.4252V57.6045H14.6753ZM15.0594 52.2453C14.9131 52.2453 14.7912 52.2026 14.6936 52.1173C14.6022 52.0258 14.5564 51.9039 14.5564 51.7514C14.5564 51.6051 14.6022 51.4862 14.6936 51.3948C14.7912 51.3033 14.9131 51.2576 15.0594 51.2576C15.2058 51.2576 15.3246 51.3033 15.4161 51.3948C15.5136 51.4862 15.5624 51.6051 15.5624 51.7514C15.5624 51.9039 15.5136 52.0258 15.4161 52.1173C15.3246 52.2026 15.2058 52.2453 15.0594 52.2453ZM16.9259 57.6045V53.1598H17.5478L17.6118 53.8H17.6393C17.8344 53.5866 18.0478 53.4098 18.2795 53.2696C18.5111 53.1233 18.7581 53.0501 19.0202 53.0501C19.3617 53.0501 19.6269 53.1263 19.8159 53.2787C20.011 53.4251 20.1543 53.6323 20.2457 53.9006C20.4774 53.6506 20.7121 53.4464 20.9499 53.2879C21.1877 53.1294 21.4407 53.0501 21.709 53.0501C22.1662 53.0501 22.5046 53.1995 22.7241 53.4982C22.9497 53.7909 23.0625 54.2207 23.0625 54.7877V57.6045H22.3126V54.8883C22.3126 54.4737 22.2455 54.1719 22.1114 53.9829C21.9772 53.7939 21.7699 53.6994 21.4895 53.6994C21.1603 53.6994 20.7883 53.928 20.3738 54.3853V57.6045H19.6238V54.8883C19.6238 54.4737 19.5568 54.1719 19.4226 53.9829C19.2885 53.7939 19.0782 53.6994 18.7916 53.6994C18.4624 53.6994 18.0905 53.928 17.6759 54.3853V57.6045H16.9259ZM25.5327 57.7142C25.1608 57.7142 24.8498 57.6045 24.5998 57.385C24.356 57.1594 24.234 56.8485 24.234 56.4522C24.234 55.9644 24.4505 55.5925 24.8834 55.3364C25.3223 55.0743 26.0143 54.8914 26.9594 54.7877C26.9594 54.5987 26.9319 54.4189 26.877 54.2481C26.8283 54.0774 26.7368 53.9402 26.6027 53.8366C26.4747 53.7269 26.2887 53.672 26.0448 53.672C25.7887 53.672 25.5479 53.7208 25.3223 53.8183C25.0967 53.9159 24.8955 54.0256 24.7187 54.1475L24.4261 53.6263C24.6334 53.4921 24.8864 53.3641 25.1852 53.2421C25.49 53.1141 25.8192 53.0501 26.1729 53.0501C26.7155 53.0501 27.1087 53.2178 27.3526 53.5531C27.5965 53.8823 27.7184 54.3243 27.7184 54.8792V57.6045H27.0965L27.0325 57.0741H27.0051C26.7978 57.2448 26.5692 57.3941 26.3192 57.5222C26.0753 57.6502 25.8131 57.7142 25.5327 57.7142ZM25.7522 57.1106C25.9656 57.1106 26.1668 57.0588 26.3558 56.9552C26.5448 56.8515 26.746 56.7052 26.9594 56.5162V55.2816C26.2216 55.373 25.7034 55.5102 25.4046 55.6931C25.112 55.876 24.9657 56.1107 24.9657 56.3973C24.9657 56.6473 25.0419 56.8302 25.1943 56.946C25.3467 57.0558 25.5327 57.1106 25.7522 57.1106ZM30.6349 57.7142C30.0801 57.7142 29.635 57.513 29.2997 57.1106C28.9644 56.7021 28.7967 56.129 28.7967 55.3913C28.7967 54.9097 28.8851 54.4951 29.0619 54.1475C29.2448 53.7939 29.4826 53.5226 29.7753 53.3336C30.074 53.1446 30.3911 53.0501 30.7264 53.0501C30.9825 53.0501 31.205 53.0958 31.394 53.1873C31.583 53.2787 31.7751 53.4037 31.9702 53.5622L31.9336 52.8032V51.093H32.6927V57.6045H32.0708L32.0067 57.0832H31.9793C31.8086 57.2539 31.6074 57.4033 31.3757 57.5313C31.144 57.6533 30.8971 57.7142 30.6349 57.7142ZM30.7996 57.0832C31.1898 57.0832 31.5678 56.879 31.9336 56.4705V54.1475C31.7446 53.9768 31.5617 53.8579 31.3849 53.7909C31.2141 53.7177 31.0373 53.6811 30.8544 53.6811C30.6166 53.6811 30.4002 53.7543 30.2051 53.9006C30.0161 54.0408 29.8637 54.239 29.7478 54.4951C29.632 54.745 29.5741 55.0407 29.5741 55.3822C29.5741 55.9126 29.6808 56.3302 29.8942 56.6351C30.1076 56.9338 30.4094 57.0832 30.7996 57.0832ZM36.0937 57.6045V51.6051H37.9685C38.377 51.6051 38.7397 51.66 39.0568 51.7697C39.3738 51.8734 39.6207 52.0502 39.7975 52.3002C39.9804 52.544 40.0719 52.8733 40.0719 53.2879C40.0719 53.7512 39.95 54.1262 39.7061 54.4128C39.4622 54.6932 39.133 54.8853 38.7184 54.9889L40.2457 57.6045H39.386L37.941 55.0712H36.8527V57.6045H36.0937ZM36.8527 54.4493H37.8587C38.3282 54.4493 38.6879 54.3548 38.9379 54.1658C39.1878 53.9707 39.3128 53.6781 39.3128 53.2879C39.3128 52.8916 39.1878 52.6142 38.9379 52.4556C38.6879 52.2971 38.3282 52.2179 37.8587 52.2179H36.8527V54.4493ZM42.2159 57.7142C41.8439 57.7142 41.533 57.6045 41.283 57.385C41.0391 57.1594 40.9172 56.8485 40.9172 56.4522C40.9172 55.9644 41.1336 55.5925 41.5665 55.3364C42.0055 55.0743 42.6975 54.8914 43.6425 54.7877C43.6425 54.5987 43.6151 54.4189 43.5602 54.2481C43.5114 54.0774 43.42 53.9402 43.2859 53.8366C43.1578 53.7269 42.9719 53.672 42.728 53.672C42.4719 53.672 42.2311 53.7208 42.0055 53.8183C41.7799 53.9159 41.5787 54.0256 41.4019 54.1475L41.1093 53.6263C41.3166 53.4921 41.5696 53.3641 41.8683 53.2421C42.1732 53.1141 42.5024 53.0501 42.856 53.0501C43.3987 53.0501 43.7919 53.2178 44.0358 53.5531C44.2797 53.8823 44.4016 54.3243 44.4016 54.8792V57.6045H43.7797L43.7157 57.0741H43.6883C43.481 57.2448 43.2523 57.3941 43.0024 57.5222C42.7585 57.6502 42.4963 57.7142 42.2159 57.7142ZM42.4353 57.1106C42.6487 57.1106 42.8499 57.0588 43.0389 56.9552C43.2279 56.8515 43.4291 56.7052 43.6425 56.5162V55.2816C42.9048 55.373 42.3866 55.5102 42.0878 55.6931C41.7952 55.876 41.6488 56.1107 41.6488 56.3973C41.6488 56.6473 41.725 56.8302 41.8775 56.946C42.0299 57.0558 42.2159 57.1106 42.4353 57.1106ZM45.3427 59.589C45.2086 59.589 45.0866 59.5768 44.9769 59.5525C44.8611 59.5281 44.7635 59.5006 44.6842 59.4702L44.8397 58.9031C44.8946 58.9214 44.9586 58.9367 45.0318 58.9489C45.1049 58.9672 45.1811 58.9763 45.2604 58.9763C45.4799 58.9763 45.6262 58.897 45.6994 58.7385C45.7725 58.5861 45.8091 58.3758 45.8091 58.1075V53.1598H46.559V58.1075C46.559 58.5587 46.4676 58.9184 46.2847 59.1866C46.1018 59.4549 45.7878 59.589 45.3427 59.589ZM46.1749 52.2453C46.0286 52.2453 45.9067 52.2026 45.8091 52.1173C45.7177 52.0258 45.6719 51.9039 45.6719 51.7514C45.6719 51.6051 45.7177 51.4862 45.8091 51.3948C45.9067 51.3033 46.0286 51.2576 46.1749 51.2576C46.3213 51.2576 46.4402 51.3033 46.5316 51.3948C46.6292 51.4862 46.6779 51.6051 46.6779 51.7514C46.6779 51.9039 46.6292 52.0258 46.5316 52.1173C46.4402 52.2026 46.3213 52.2453 46.1749 52.2453ZM49.8154 57.7142C49.4252 57.7142 49.0716 57.6228 48.7546 57.4399C48.4375 57.257 48.1876 56.9918 48.0047 56.6442C47.8218 56.2967 47.7303 55.8791 47.7303 55.3913C47.7303 54.8914 47.8279 54.4676 48.023 54.1201C48.2242 53.7726 48.4863 53.5074 48.8095 53.3245C49.1387 53.1415 49.4923 53.0501 49.8703 53.0501C50.163 53.0501 50.4129 53.1019 50.6202 53.2056C50.8336 53.3092 51.0165 53.4311 51.169 53.5714L50.7849 54.0652C50.6568 53.9494 50.5196 53.8549 50.3733 53.7817C50.2331 53.7086 50.0746 53.672 49.8978 53.672C49.6295 53.672 49.3887 53.7451 49.1753 53.8915C48.968 54.0317 48.8034 54.2329 48.6814 54.4951C48.5656 54.7511 48.5077 55.0499 48.5077 55.3913C48.5077 55.8974 48.6326 56.3089 48.8826 56.6259C49.1387 56.9369 49.471 57.0924 49.8795 57.0924C50.0868 57.0924 50.2788 57.0497 50.4556 56.9643C50.6324 56.8729 50.7879 56.7662 50.922 56.6442L51.2513 57.1472C51.0501 57.324 50.8275 57.4643 50.5837 57.5679C50.3398 57.6655 50.0837 57.7142 49.8154 57.7142ZM52.2303 57.6045V51.093H52.9803V52.8672L52.9528 53.7817C53.1662 53.5805 53.3887 53.4098 53.6204 53.2696C53.8582 53.1233 54.1295 53.0501 54.4344 53.0501C54.9038 53.0501 55.2453 53.1995 55.4586 53.4982C55.6781 53.7909 55.7879 54.2207 55.7879 54.7877V57.6045H55.038V54.8883C55.038 54.4737 54.9709 54.1719 54.8368 53.9829C54.7026 53.7939 54.4892 53.6994 54.1966 53.6994C53.971 53.6994 53.7668 53.7573 53.5838 53.8732C53.407 53.989 53.2058 54.1597 52.9803 54.3853V57.6045H52.2303ZM58.2292 57.7142C57.8573 57.7142 57.5463 57.6045 57.2964 57.385C57.0525 57.1594 56.9306 56.8485 56.9306 56.4522C56.9306 55.9644 57.147 55.5925 57.5799 55.3364C58.0189 55.0743 58.7109 54.8914 59.6559 54.7877C59.6559 54.5987 59.6284 54.4189 59.5736 54.2481C59.5248 54.0774 59.4333 53.9402 59.2992 53.8366C59.1712 53.7269 58.9852 53.672 58.7413 53.672C58.4853 53.672 58.2444 53.7208 58.0189 53.8183C57.7933 53.9159 57.5921 54.0256 57.4153 54.1475L57.1226 53.6263C57.3299 53.4921 57.5829 53.3641 57.8817 53.2421C58.1865 53.1141 58.5158 53.0501 58.8694 53.0501C59.412 53.0501 59.8053 53.2178 60.0491 53.5531C60.293 53.8823 60.4149 54.3243 60.4149 54.8792V57.6045H59.7931L59.729 57.0741H59.7016C59.4943 57.2448 59.2657 57.3941 59.0157 57.5222C58.7718 57.6502 58.5097 57.7142 58.2292 57.7142ZM58.4487 57.1106C58.6621 57.1106 58.8633 57.0588 59.0523 56.9552C59.2413 56.8515 59.4425 56.7052 59.6559 56.5162V55.2816C58.9182 55.373 58.3999 55.5102 58.1012 55.6931C57.8085 55.876 57.6622 56.1107 57.6622 56.3973C57.6622 56.6473 57.7384 56.8302 57.8908 56.946C58.0432 57.0558 58.2292 57.1106 58.4487 57.1106ZM61.8133 57.6045V53.1598H62.4352L62.4992 53.8H62.5267C62.7401 53.5866 62.9656 53.4098 63.2034 53.2696C63.4412 53.1233 63.7125 53.0501 64.0174 53.0501C64.4868 53.0501 64.8283 53.1995 65.0416 53.4982C65.2611 53.7909 65.3709 54.2207 65.3709 54.7877V57.6045H64.621V54.8883C64.621 54.4737 64.5539 54.1719 64.4198 53.9829C64.2856 53.7939 64.0722 53.6994 63.7796 53.6994C63.554 53.6994 63.3498 53.7573 63.1668 53.8732C62.99 53.989 62.7888 54.1597 62.5633 54.3853V57.6045H61.8133ZM68.3328 57.7142C67.778 57.7142 67.3329 57.513 66.9976 57.1106C66.6623 56.7021 66.4946 56.129 66.4946 55.3913C66.4946 54.9097 66.583 54.4951 66.7598 54.1475C66.9427 53.7939 67.1805 53.5226 67.4732 53.3336C67.7719 53.1446 68.089 53.0501 68.4243 53.0501C68.6804 53.0501 68.9029 53.0958 69.0919 53.1873C69.2809 53.2787 69.473 53.4037 69.6681 53.5622L69.6315 52.8032V51.093H70.3906V57.6045H69.7687L69.7047 57.0832H69.6772C69.5065 57.2539 69.3053 57.4033 69.0736 57.5313C68.8419 57.6533 68.595 57.7142 68.3328 57.7142ZM68.4975 57.0832C68.8877 57.0832 69.2657 56.879 69.6315 56.4705V54.1475C69.4425 53.9768 69.2596 53.8579 69.0828 53.7909C68.9121 53.7177 68.7352 53.6811 68.5523 53.6811C68.3146 53.6811 68.0981 53.7543 67.903 53.9006C67.714 54.0408 67.5616 54.239 67.4457 54.4951C67.3299 54.745 67.272 55.0407 67.272 55.3822C67.272 55.9126 67.3787 56.3302 67.5921 56.6351C67.8055 56.9338 68.1073 57.0832 68.4975 57.0832ZM71.8875 57.6045V53.1598H72.5094L72.5734 53.9646H72.6009C72.7533 53.6842 72.9393 53.4616 73.1587 53.297C73.3782 53.1324 73.613 53.0501 73.8629 53.0501C74.0398 53.0501 74.1983 53.0806 74.3385 53.1415L74.1922 53.8C74.119 53.7756 74.0519 53.7573 73.991 53.7451C73.93 53.7329 73.8538 53.7269 73.7623 53.7269C73.5733 53.7269 73.3752 53.8031 73.1679 53.9555C72.9667 54.1079 72.7899 54.3731 72.6375 54.7511V57.6045H71.8875ZM75.8591 57.7142C75.4872 57.7142 75.1762 57.6045 74.9262 57.385C74.6824 57.1594 74.5604 56.8485 74.5604 56.4522C74.5604 55.9644 74.7769 55.5925 75.2097 55.3364C75.6487 55.0743 76.3407 54.8914 77.2857 54.7877C77.2857 54.5987 77.2583 54.4189 77.2034 54.2481C77.1547 54.0774 77.0632 53.9402 76.9291 53.8366C76.801 53.7269 76.6151 53.672 76.3712 53.672C76.1151 53.672 75.8743 53.7208 75.6487 53.8183C75.4231 53.9159 75.2219 54.0256 75.0451 54.1475L74.7525 53.6263C74.9598 53.4921 75.2128 53.3641 75.5115 53.2421C75.8164 53.1141 76.1456 53.0501 76.4992 53.0501C77.0419 53.0501 77.4351 53.2178 77.679 53.5531C77.9229 53.8823 78.0448 54.3243 78.0448 54.8792V57.6045H77.4229L77.3589 57.0741H77.3315C77.1242 57.2448 76.8955 57.3941 76.6456 57.5222C76.4017 57.6502 76.1395 57.7142 75.8591 57.7142ZM76.0786 57.1106C76.2919 57.1106 76.4931 57.0588 76.6822 56.9552C76.8712 56.8515 77.0724 56.7052 77.2857 56.5162V55.2816C76.548 55.373 76.0298 55.5102 75.731 55.6931C75.4384 55.876 75.2921 56.1107 75.2921 56.3973C75.2921 56.6473 75.3683 56.8302 75.5207 56.946C75.6731 57.0558 75.8591 57.1106 76.0786 57.1106ZM81.3472 57.6045V51.6051H82.2618L83.4141 54.806C83.4872 55.0133 83.5574 55.2236 83.6244 55.437C83.6976 55.6443 83.7707 55.8516 83.8439 56.0589H83.8805C83.9537 55.8516 84.0207 55.6443 84.0817 55.437C84.1488 55.2236 84.2189 55.0133 84.292 54.806L85.4261 51.6051H86.3497V57.6045H85.6364V54.303C85.6364 54.0347 85.6486 53.739 85.673 53.4159C85.6974 53.0867 85.7187 52.791 85.737 52.5288H85.7004L85.2249 53.8915L84.0908 57.0009H83.5878L82.4538 53.8915L81.9783 52.5288H81.9417C81.96 52.791 81.9783 53.0867 81.9965 53.4159C82.0209 53.739 82.0331 54.0347 82.0331 54.303V57.6045H81.3472ZM87.9188 57.6045V53.1598H88.6687V57.6045H87.9188ZM88.3029 52.2453C88.1565 52.2453 88.0346 52.2026 87.937 52.1173C87.8456 52.0258 87.7999 51.9039 87.7999 51.7514C87.7999 51.6051 87.8456 51.4862 87.937 51.3948C88.0346 51.3033 88.1565 51.2576 88.3029 51.2576C88.4492 51.2576 88.5681 51.3033 88.6595 51.3948C88.7571 51.4862 88.8059 51.6051 88.8059 51.7514C88.8059 51.9039 88.7571 52.0258 88.6595 52.1173C88.5681 52.2026 88.4492 52.2453 88.3029 52.2453ZM91.3308 57.7142C91.0138 57.7142 90.712 57.6563 90.4254 57.5405C90.1389 57.4185 89.8889 57.2722 89.6755 57.1015L90.0505 56.5985C90.2456 56.7509 90.4468 56.879 90.6541 56.9826C90.8614 57.0802 91.0961 57.1289 91.3583 57.1289C91.6509 57.1289 91.8704 57.0619 92.0167 56.9277C92.1631 56.7875 92.2362 56.6229 92.2362 56.4339C92.2362 56.2815 92.1844 56.1534 92.0808 56.0498C91.9832 55.9461 91.8552 55.8608 91.6966 55.7937C91.5442 55.7205 91.3857 55.6535 91.2211 55.5925C91.0138 55.5132 90.8095 55.4248 90.6083 55.3273C90.4072 55.2236 90.2425 55.0926 90.1145 54.934C89.9865 54.7694 89.9224 54.5621 89.9224 54.3122C89.9224 53.9524 90.0566 53.6537 90.3248 53.4159C90.5992 53.172 90.9772 53.0501 91.4589 53.0501C91.7332 53.0501 91.9893 53.0989 92.2271 53.1964C92.4649 53.294 92.6691 53.4129 92.8398 53.5531L92.474 54.0286C92.3216 53.9128 92.1631 53.8183 91.9984 53.7451C91.8338 53.672 91.654 53.6354 91.4589 53.6354C91.1784 53.6354 90.9711 53.6994 90.837 53.8274C90.7089 53.9555 90.6449 54.1049 90.6449 54.2756C90.6449 54.4158 90.6907 54.5316 90.7821 54.6231C90.8736 54.7085 90.9925 54.7847 91.1388 54.8517C91.2851 54.9127 91.4406 54.9767 91.6052 55.0438C91.8186 55.123 92.0289 55.2145 92.2362 55.3181C92.4435 55.4157 92.6142 55.5498 92.7484 55.7205C92.8886 55.8852 92.9587 56.1077 92.9587 56.3882C92.9587 56.6259 92.8947 56.8454 92.7667 57.0466C92.6447 57.2478 92.4618 57.4094 92.2179 57.5313C91.9802 57.6533 91.6845 57.7142 91.3308 57.7142ZM95.1622 57.7142C94.8452 57.7142 94.5434 57.6563 94.2569 57.5405C93.9703 57.4185 93.7203 57.2722 93.5069 57.1015L93.8819 56.5985C94.077 56.7509 94.2782 56.879 94.4855 56.9826C94.6928 57.0802 94.9275 57.1289 95.1897 57.1289C95.4823 57.1289 95.7018 57.0619 95.8482 56.9277C95.9945 56.7875 96.0676 56.6229 96.0676 56.4339C96.0676 56.2815 96.0158 56.1534 95.9122 56.0498C95.8146 55.9461 95.6866 55.8608 95.5281 55.7937C95.3756 55.7205 95.2171 55.6535 95.0525 55.5925C94.8452 55.5132 94.641 55.4248 94.4398 55.3273C94.2386 55.2236 94.0739 55.0926 93.9459 54.934C93.8179 54.7694 93.7539 54.5621 93.7539 54.3122C93.7539 53.9524 93.888 53.6537 94.1563 53.4159C94.4306 53.172 94.8086 53.0501 95.2903 53.0501C95.5646 53.0501 95.8207 53.0989 96.0585 53.1964C96.2963 53.294 96.5005 53.4129 96.6712 53.5531L96.3054 54.0286C96.153 53.9128 95.9945 53.8183 95.8299 53.7451C95.6652 53.672 95.4854 53.6354 95.2903 53.6354C95.0098 53.6354 94.8025 53.6994 94.6684 53.8274C94.5404 53.9555 94.4763 54.1049 94.4763 54.2756C94.4763 54.4158 94.5221 54.5316 94.6135 54.6231C94.705 54.7085 94.8239 54.7847 94.9702 54.8517C95.1165 54.9127 95.272 54.9767 95.4366 55.0438C95.65 55.123 95.8603 55.2145 96.0676 55.3181C96.2749 55.4157 96.4456 55.5498 96.5798 55.7205C96.72 55.8852 96.7901 56.1077 96.7901 56.3882C96.7901 56.6259 96.7261 56.8454 96.5981 57.0466C96.4761 57.2478 96.2932 57.4094 96.0493 57.5313C95.8116 57.6533 95.5159 57.7142 95.1622 57.7142ZM97.8322 57.6045V53.1598H98.5821V57.6045H97.8322ZM98.2163 52.2453C98.07 52.2453 97.948 52.2026 97.8505 52.1173C97.759 52.0258 97.7133 51.9039 97.7133 51.7514C97.7133 51.6051 97.759 51.4862 97.8505 51.3948C97.948 51.3033 98.07 51.2576 98.2163 51.2576C98.3626 51.2576 98.4815 51.3033 98.573 51.3948C98.6705 51.4862 98.7193 51.6051 98.7193 51.7514C98.7193 51.9039 98.6705 52.0258 98.573 52.1173C98.4815 52.2026 98.3626 52.2453 98.2163 52.2453ZM101.811 57.7142C101.452 57.7142 101.113 57.6228 100.796 57.4399C100.485 57.257 100.232 56.9918 100.037 56.6442C99.8481 56.2967 99.7536 55.8791 99.7536 55.3913C99.7536 54.8914 99.8481 54.4676 100.037 54.1201C100.232 53.7726 100.485 53.5074 100.796 53.3245C101.113 53.1415 101.452 53.0501 101.811 53.0501C102.177 53.0501 102.515 53.1415 102.826 53.3245C103.137 53.5074 103.387 53.7726 103.576 54.1201C103.771 54.4676 103.869 54.8914 103.869 55.3913C103.869 55.8791 103.771 56.2967 103.576 56.6442C103.387 56.9918 103.137 57.257 102.826 57.4399C102.515 57.6228 102.177 57.7142 101.811 57.7142ZM101.811 57.0924C102.195 57.0924 102.503 56.9369 102.735 56.6259C102.973 56.3089 103.092 55.8974 103.092 55.3913C103.092 54.8792 102.973 54.4646 102.735 54.1475C102.503 53.8305 102.195 53.672 101.811 53.672C101.433 53.672 101.125 53.8305 100.888 54.1475C100.65 54.4646 100.531 54.8792 100.531 55.3913C100.531 55.8974 100.65 56.3089 100.888 56.6259C101.125 56.9369 101.433 57.0924 101.811 57.0924ZM105.04 57.6045V53.1598H105.661L105.725 53.8H105.753C105.966 53.5866 106.192 53.4098 106.43 53.2696C106.667 53.1233 106.939 53.0501 107.244 53.0501C107.713 53.0501 108.054 53.1995 108.268 53.4982C108.487 53.7909 108.597 54.2207 108.597 54.7877V57.6045H107.847V54.8883C107.847 54.4737 107.78 54.1719 107.646 53.9829C107.512 53.7939 107.298 53.6994 107.006 53.6994C106.78 53.6994 106.576 53.7573 106.393 53.8732C106.216 53.989 106.015 54.1597 105.789 54.3853V57.6045H105.04ZM111.945 57.6045V51.6051H113.445C114.372 51.6051 115.076 51.8642 115.557 52.3825C116.039 52.8946 116.28 53.6263 116.28 54.5774C116.28 55.5346 116.039 56.2784 115.557 56.8088C115.082 57.3393 114.39 57.6045 113.481 57.6045H111.945ZM112.704 56.9826H113.39C114.091 56.9826 114.615 56.7723 114.963 56.3516C115.317 55.9248 115.493 55.3334 115.493 54.5774C115.493 53.8214 115.317 53.2421 114.963 52.8397C114.615 52.4313 114.091 52.227 113.39 52.227H112.704V56.9826ZM119.3 57.7142C118.904 57.7142 118.544 57.6228 118.221 57.4399C117.898 57.2509 117.642 56.9826 117.453 56.6351C117.264 56.2876 117.169 55.873 117.169 55.3913C117.169 54.9036 117.264 54.4859 117.453 54.1384C117.648 53.7909 117.898 53.5226 118.203 53.3336C118.507 53.1446 118.827 53.0501 119.163 53.0501C119.73 53.0501 120.166 53.2391 120.471 53.6171C120.782 53.9951 120.937 54.5012 120.937 55.1352C120.937 55.2145 120.934 55.2938 120.928 55.373C120.928 55.4462 120.922 55.5102 120.91 55.5651H117.91C117.94 56.0345 118.087 56.4095 118.349 56.69C118.617 56.9704 118.965 57.1106 119.391 57.1106C119.605 57.1106 119.8 57.0802 119.977 57.0192C120.16 56.9521 120.333 56.8668 120.498 56.7631L120.763 57.257C120.574 57.3789 120.358 57.4856 120.114 57.5771C119.876 57.6685 119.605 57.7142 119.3 57.7142ZM117.901 55.0255H120.279C120.279 54.5743 120.181 54.2329 119.986 54.0012C119.797 53.7634 119.529 53.6445 119.181 53.6445C118.87 53.6445 118.59 53.7665 118.34 54.0104C118.096 54.2481 117.95 54.5865 117.901 55.0255ZM122.831 57.7142C122.55 57.7142 122.346 57.6289 122.218 57.4582C122.096 57.2814 122.035 57.0314 122.035 56.7082V51.093H122.785V56.7631C122.785 56.879 122.807 56.9643 122.849 57.0192C122.892 57.068 122.941 57.0924 122.996 57.0924C123.02 57.0924 123.041 57.0924 123.06 57.0924C123.084 57.0863 123.118 57.0802 123.16 57.0741L123.261 57.6411C123.212 57.6655 123.154 57.6838 123.087 57.6959C123.02 57.7081 122.935 57.7142 122.831 57.7142ZM124.366 57.6045V51.093H125.116V52.8672L125.089 53.7817C125.302 53.5805 125.525 53.4098 125.756 53.2696C125.994 53.1233 126.265 53.0501 126.57 53.0501C127.04 53.0501 127.381 53.1995 127.595 53.4982C127.814 53.7909 127.924 54.2207 127.924 54.7877V57.6045H127.174V54.8883C127.174 54.4737 127.107 54.1719 126.973 53.9829C126.839 53.7939 126.625 53.6994 126.333 53.6994C126.107 53.6994 125.903 53.7573 125.72 53.8732C125.543 53.989 125.342 54.1597 125.116 54.3853V57.6045H124.366ZM129.341 57.6045V53.1598H130.091V57.6045H129.341ZM129.725 52.2453C129.579 52.2453 129.457 52.2026 129.359 52.1173C129.268 52.0258 129.222 51.9039 129.222 51.7514C129.222 51.6051 129.268 51.4862 129.359 51.3948C129.457 51.3033 129.579 51.2576 129.725 51.2576C129.871 51.2576 129.99 51.3033 130.082 51.3948C130.179 51.4862 130.228 51.6051 130.228 51.7514C130.228 51.9039 130.179 52.0258 130.082 52.1173C129.99 52.2026 129.871 52.2453 129.725 52.2453Z" fill="#E3AD64"/>
</svg>
