<svg width="60" height="20" viewBox="0 0 60 20" fill="none" xmlns="http://www.w3.org/2000/svg">
<path d="M24.9001 10.1416L22.6021 13.0906L24.9001 16.0396L27.1981 13.0906L24.9001 10.1416Z" fill="#E3AD64"/>
<path d="M27.143 0.834961V6.86743H26.8673C26.5156 3.27807 19.9133 2.47393 19.9133 8.24177V16.1574L22.4755 19.4456H12.8252L15.3742 16.1574V4.12314L13.2016 1.27358H13.1943L12.8252 0.849582V6.30746H12.583C11.9045 5.07494 10.8554 4.02957 9.75819 3.30146C9.74506 3.29415 9.72463 3.28099 9.7115 3.27368C8.5209 2.49879 6.95385 2.028 5.70343 2.028C4.91699 2.06163 4.30418 2.30433 3.86062 2.7488C3.4156 3.22689 3.20696 3.80733 3.20696 4.56176C3.20696 5.2153 3.71909 5.88931 4.22977 6.26652C4.74044 6.63789 5.15774 6.81918 5.91062 7.09551L8.78207 8.10726C9.62979 8.40406 10.2878 8.74764 10.9269 9.1117C11.6856 9.543 12.2926 10.1425 12.8368 10.8574C13.3548 11.5782 13.5897 12.5344 13.5897 13.7011C13.5897 14.7918 13.3533 15.7158 12.8704 16.5039C12.3583 17.2934 11.7469 17.9455 10.994 18.425C10.9867 18.4323 10.9794 18.4323 10.9736 18.4397C9.88513 19.1254 8.59969 19.4499 7.30841 19.4499H0.277139V12.2668H0.545609C0.579167 12.3809 0.640448 12.4817 0.679843 12.5899C1.12486 13.6412 2.70504 16.9571 5.01766 17.8724C5.62902 18.1487 6.23599 18.3183 6.86047 18.3724C7.0093 18.3856 7.16396 18.3929 7.31133 18.3929C8.09047 18.3929 8.77624 18.1838 9.32047 17.773C9.872 17.3943 10.1405 16.7817 10.1405 15.8927C10.1405 15.1383 9.90556 14.5579 9.42844 14.1485C8.91047 13.7362 8.29766 13.359 7.54478 13.0505L5.92375 12.4233C5.07019 12.1192 3.44916 11.4466 2.69628 11.0007C1.9434 10.5226 1.33059 9.90267 0.853473 9.11462C0.344257 8.36312 0.102051 7.3309 0.102051 6.10423C0.102051 5.38344 0.277139 4.72989 0.545609 4.08366C0.854932 3.47106 1.29849 2.88331 1.84272 2.40522C2.38696 1.92712 3.04062 1.54991 3.82706 1.23995C4.61496 0.970933 5.46852 0.836423 6.42275 0.836423H19.9133V4.68603L22.7556 0.834961H27.143Z" fill="#E3AD64"/>
<path d="M49.8744 19.4441H59.7465L57.1844 16.156V6.43909C57.1844 6.35137 57.1844 6.2578 57.1771 6.17008C57.1698 5.84696 57.1508 5.52969 57.11 5.21973C57.0968 5.1247 57.0837 5.03113 57.0633 4.93609C56.5453 2.40819 54.38 0.4885 51.745 0.35399C51.6443 0.34668 51.5494 0.34668 51.4488 0.34668C50.9979 0.34668 50.5544 0.406624 50.1035 0.507507C50.0772 0.514817 50.0437 0.520665 50.016 0.527975C49.8876 0.554293 49.7665 0.58792 49.6395 0.62301C49.0209 0.791147 48.4431 1.03385 47.9309 1.34381C47.3867 1.64645 46.8687 2.02367 46.4252 2.40234C45.9481 2.81318 45.5716 3.27812 45.2346 3.72404C44.4277 1.90378 42.6987 0.583534 40.6341 0.374459C40.5539 0.367149 40.4722 0.3613 40.3919 0.3613C40.2839 0.348142 40.1701 0.348142 40.0563 0.348142C39.9556 0.348142 39.855 0.348142 39.7543 0.355452C38.6585 0.38908 37.6489 0.658099 36.7617 1.13619C35.8075 1.64792 34.9861 2.36871 34.2405 3.22548V0.832084H27.145L29.694 4.12319V16.156L27.1392 19.4441H36.8026L34.2405 16.156V4.69339C34.3878 4.53841 34.5367 4.39074 34.6913 4.24892C34.7657 4.18167 34.8387 4.11441 34.9131 4.06032C35.0138 3.96528 35.1217 3.88487 35.2356 3.80446C35.256 3.7913 35.2764 3.77814 35.2954 3.76352C35.8878 3.35999 36.6071 3.12314 37.3804 3.12314C39.3166 3.12314 40.904 4.59251 41.0923 6.47857C41.1054 6.60723 41.1127 6.73443 41.1127 6.86309C41.1258 7.13942 41.1331 7.42891 41.1331 7.73887V16.156L38.571 19.4441H48.2753L45.7132 16.156V6.43909C45.7132 6.35868 45.7132 6.27096 45.7059 6.18908C45.6986 5.81918 45.6796 5.45513 45.611 5.11739C45.6037 5.04282 45.5848 4.96972 45.5702 4.90247C45.5775 4.89516 45.5833 4.882 45.5964 4.87615C45.7044 4.7548 45.8182 4.64076 45.9262 4.52525C46.1275 4.3308 46.3303 4.14804 46.5317 3.99306C46.6119 3.92581 46.6936 3.85855 46.7812 3.80446C46.8279 3.77083 46.8819 3.7372 46.9286 3.70942C47.5063 3.34537 48.179 3.1363 48.9056 3.1363C50.1765 3.1363 51.3058 3.77668 51.9784 4.75334C52.3621 5.31331 52.5431 5.99317 52.5839 6.67449C52.6248 7.38212 52.6437 8.09561 52.6437 8.80325V16.156L49.873 19.4441H49.8744Z" fill="#E3AD64"/>
</svg>
