<svg width="34" height="33" viewBox="0 0 34 33" fill="none" xmlns="http://www.w3.org/2000/svg">
<circle cx="17.09" cy="16.2648" r="16.2648" fill="#CF9E69"/>
<g clip-path="url(#clip0_1149_19703)">
<path d="M20.5173 9.42773H13.6809C11.7931 9.42773 10.2627 10.9581 10.2627 12.8459V19.6823C10.2627 21.5701 11.7931 23.1005 13.6809 23.1005H20.5173C22.4051 23.1005 23.9354 21.5701 23.9354 19.6823V12.8459C23.9354 10.9581 22.4051 9.42773 20.5173 9.42773Z" stroke="white" stroke-width="1.20122" stroke-linecap="round" stroke-linejoin="round"/>
<path d="M19.8341 15.8334C19.9184 16.4024 19.8212 16.9835 19.5563 17.494C19.2914 18.0045 18.8723 18.4186 18.3585 18.6771C17.8447 18.9357 17.2625 19.0258 16.6946 18.9344C16.1268 18.843 15.6022 18.5749 15.1955 18.1682C14.7888 17.7615 14.5206 17.2369 14.4293 16.669C14.3379 16.1011 14.4279 15.5189 14.6865 15.0051C14.9451 14.4914 15.3591 14.0722 15.8696 13.8073C16.3802 13.5424 16.9612 13.4452 17.5302 13.5296C18.1106 13.6156 18.6478 13.8861 19.0627 14.3009C19.4776 14.7158 19.748 15.2531 19.8341 15.8334Z" stroke="white" stroke-width="1.20122" stroke-linecap="round" stroke-linejoin="round"/>
<path d="M20.8594 12.5039H20.8662" stroke="white" stroke-width="1.36728" stroke-linecap="round" stroke-linejoin="round"/>
</g>
<defs>
<clipPath id="clip0_1149_19703">
<rect width="16.4073" height="16.4073" fill="white" transform="translate(8.89551 8.06055)"/>
</clipPath>
</defs>
</svg>
