<svg width="1440" height="140" viewBox="0 0 1440 140" fill="none" xmlns="http://www.w3.org/2000/svg">
<g opacity="0.2">
<path d="M-8.04004 127.772L-35.3125 162.681L-8.04004 197.59L19.2324 162.681L-8.04004 127.772Z" fill="#7767B3"/>
<path d="M87.9897 127.772L60.7173 162.681L87.9897 197.59L115.262 162.681L87.9897 127.772Z" fill="#7767B3"/>
<path d="M184.02 127.772L156.747 162.681L184.02 197.59L211.292 162.681L184.02 127.772Z" fill="#7767B3"/>
<path d="M280.049 127.772L252.777 162.681L280.049 197.59L307.322 162.681L280.049 127.772Z" fill="#7767B3"/>
<path d="M376.079 127.772L348.807 162.681L376.079 197.59L403.352 162.681L376.079 127.772Z" fill="#7767B3"/>
<path d="M472.109 127.772L444.836 162.681L472.109 197.59L499.381 162.681L472.109 127.772Z" fill="#7767B3"/>
<path d="M568.139 127.772L540.866 162.681L568.139 197.59L595.411 162.681L568.139 127.772Z" fill="#7767B3"/>
<path d="M664.168 127.772L636.896 162.681L664.168 197.59L691.441 162.681L664.168 127.772Z" fill="#7767B3"/>
<path d="M760.198 127.772L732.926 162.681L760.198 197.59L787.471 162.681L760.198 127.772Z" fill="#7767B3"/>
<path d="M856.228 127.772L828.956 162.681L856.228 197.59L883.5 162.681L856.228 127.772Z" fill="#7767B3"/>
<path d="M952.258 127.772L924.985 162.681L952.258 197.59L979.53 162.681L952.258 127.772Z" fill="#7767B3"/>
<path d="M1048.29 127.772L1021.02 162.681L1048.29 197.59L1075.56 162.681L1048.29 127.772Z" fill="#7767B3"/>
<path d="M1144.32 127.772L1117.04 162.681L1144.32 197.59L1171.59 162.681L1144.32 127.772Z" fill="#7767B3"/>
<path d="M1240.35 127.772L1213.07 162.681L1240.35 197.59L1267.62 162.681L1240.35 127.772Z" fill="#7767B3"/>
<path d="M1336.38 127.772L1309.1 162.681L1336.38 197.59L1363.65 162.681L1336.38 127.772Z" fill="#7767B3"/>
<path d="M1432.41 127.772L1405.13 162.681L1432.41 197.59L1459.68 162.681L1432.41 127.772Z" fill="#7767B3"/>
<g opacity="0.7">
<path d="M64.1752 56.9717L45.5454 80.8178L64.1752 104.664L82.805 80.8178L64.1752 56.9717Z" fill="#7767B3"/>
<path d="M156.748 56.9717L138.118 80.8178L156.748 104.664L175.378 80.8178L156.748 56.9717Z" fill="#7767B3"/>
<path d="M249.32 56.9717L230.69 80.8178L249.32 104.664L267.95 80.8178L249.32 56.9717Z" fill="#7767B3"/>
<path d="M341.893 56.9717L323.264 80.8178L341.893 104.664L360.523 80.8178L341.893 56.9717Z" fill="#7767B3"/>
<path d="M434.466 56.9717L415.836 80.8178L434.466 104.664L453.096 80.8178L434.466 56.9717Z" fill="#7767B3"/>
<path d="M527.038 56.9717L508.409 80.8178L527.038 104.664L545.668 80.8178L527.038 56.9717Z" fill="#7767B3"/>
<path d="M619.611 56.9717L600.981 80.8178L619.611 104.664L638.241 80.8178L619.611 56.9717Z" fill="#7767B3"/>
<path d="M712.184 56.9717L693.554 80.8178L712.184 104.664L730.814 80.8178L712.184 56.9717Z" fill="#7767B3"/>
<path d="M804.757 56.9717L786.127 80.8178L804.757 104.664L823.387 80.8178L804.757 56.9717Z" fill="#7767B3"/>
<path d="M897.329 56.9717L878.7 80.8178L897.329 104.664L915.959 80.8178L897.329 56.9717Z" fill="#7767B3"/>
<path d="M989.902 56.9717L971.272 80.8178L989.902 104.664L1008.53 80.8178L989.902 56.9717Z" fill="#7767B3"/>
<path d="M1082.47 56.9717L1063.85 80.8178L1082.47 104.664L1101.1 80.8178L1082.47 56.9717Z" fill="#7767B3"/>
<path d="M1175.05 56.9717L1156.42 80.8178L1175.05 104.664L1193.68 80.8178L1175.05 56.9717Z" fill="#7767B3"/>
<path d="M1267.62 56.9717L1248.99 80.8178L1267.62 104.664L1286.25 80.8178L1267.62 56.9717Z" fill="#7767B3"/>
<path d="M1360.19 56.9717L1341.56 80.8178L1360.19 104.664L1378.82 80.8178L1360.19 56.9717Z" fill="#7767B3"/>
<path d="M1452.77 56.9717L1434.14 80.8178L1452.77 104.664L1471.4 80.8178L1452.77 56.9717Z" fill="#7767B3"/>
</g>
<g opacity="0.4">
<path d="M32.7379 0L19.5098 16.932L32.7379 33.8639L45.966 16.932L32.7379 0Z" fill="#7767B3"/>
<path d="M122.804 0L109.576 16.932L122.804 33.8639L136.032 16.932L122.804 0Z" fill="#7767B3"/>
<path d="M212.871 0L199.643 16.932L212.871 33.8639L226.099 16.932L212.871 0Z" fill="#7767B3"/>
<path d="M302.937 0L289.709 16.932L302.937 33.8639L316.165 16.932L302.937 0Z" fill="#7767B3"/>
<path d="M393.003 0L379.775 16.932L393.003 33.8639L406.231 16.932L393.003 0Z" fill="#7767B3"/>
<path d="M483.069 0L469.841 16.932L483.069 33.8639L496.298 16.932L483.069 0Z" fill="#7767B3"/>
<path d="M573.136 0L559.908 16.932L573.136 33.8639L586.364 16.932L573.136 0Z" fill="#7767B3"/>
<path d="M663.202 0L649.974 16.932L663.202 33.8639L676.43 16.932L663.202 0Z" fill="#7767B3"/>
<path d="M753.269 0L740.041 16.932L753.269 33.8639L766.497 16.932L753.269 0Z" fill="#7767B3"/>
<path d="M843.335 0L830.106 16.932L843.335 33.8639L856.563 16.932L843.335 0Z" fill="#7767B3"/>
<path d="M933.401 0L920.173 16.932L933.401 33.8639L946.63 16.932L933.401 0Z" fill="#7767B3"/>
<path d="M1023.47 0L1010.24 16.932L1023.47 33.8639L1036.7 16.932L1023.47 0Z" fill="#7767B3"/>
<path d="M1113.53 0L1100.31 16.932L1113.53 33.8639L1126.76 16.932L1113.53 0Z" fill="#7767B3"/>
<path d="M1203.6 0L1190.37 16.932L1203.6 33.8639L1216.83 16.932L1203.6 0Z" fill="#7767B3"/>
<path d="M1293.67 0L1280.44 16.932L1293.67 33.8639L1306.89 16.932L1293.67 0Z" fill="#7767B3"/>
<path d="M1383.73 0L1370.5 16.932L1383.73 33.8639L1396.96 16.932L1383.73 0Z" fill="#7767B3"/>
</g>
</g>
</svg>
