<svg width="310" height="56" viewBox="0 0 310 56" fill="none" xmlns="http://www.w3.org/2000/svg">
<path d="M72.9368 28.5454L66.228 37.1379L72.9368 45.7305L79.6456 37.1379L72.9368 28.5454Z" fill="#CF9E69"/>
<path d="M79.4844 1.43711V19.0074H78.6791C77.6496 8.55908 58.3707 6.20608 58.3707 23.013V46.0806L65.8498 55.6606H37.6841L45.1282 46.0806V11.0171L38.7835 2.71164L37.7051 1.47913V17.3827H37.0048C34.986 13.8539 32.1618 10.8521 28.7624 8.62209L28.6223 8.54507C25.1155 6.28783 21.0609 5.02665 16.8925 4.89655C14.8962 4.87889 12.97 5.63133 11.5142 6.99742C10.8645 7.70865 10.3618 8.54125 10.0349 9.44741C9.70802 10.3536 9.56343 11.3154 9.60945 12.2776C9.60945 14.1824 11.1011 16.1502 12.5997 17.2427C14.0977 18.2986 15.7517 19.1138 17.5017 19.6587L25.9052 22.6069C28.0953 23.3776 30.206 24.3579 32.2078 25.5341C34.4038 26.8271 36.3107 28.5576 37.8101 30.6182C39.3158 32.7191 40.009 35.5202 40.009 38.9026C40.0907 41.7678 39.3625 44.598 37.9082 47.068C36.5109 49.3107 34.6422 51.2224 32.4319 52.6703L32.3689 52.7124C29.1508 54.6763 25.4452 55.6955 21.6755 55.6536H1.0519V34.7359H1.80822C1.90626 35.065 2.08133 35.3592 2.20038 35.6743C3.49592 38.7416 8.11083 48.3986 14.8616 51.0807C16.569 51.8632 18.3973 52.3487 20.2679 52.5163C20.702 52.5163 21.1572 52.5723 21.5914 52.5723C23.6906 52.6297 25.7503 51.9948 27.4528 50.7655C29.0635 49.6661 29.8478 47.8803 29.8478 45.2893C29.9047 44.3382 29.7452 43.3865 29.3814 42.5059C29.0175 41.6253 28.4587 40.8387 27.747 40.2052C26.0714 38.8855 24.2185 37.8082 22.2427 37.0048L17.5157 35.1771C14.2841 34.0286 11.1407 32.6454 8.11083 31.0384C5.91321 29.6543 4.07108 27.7738 2.7326 25.5481C1.24098 23.3702 0.533691 20.3659 0.533691 16.7875C0.557722 14.7585 0.991229 12.7554 1.80822 10.898C2.74891 9.03863 4.0346 7.37508 5.59679 5.99601C7.31476 4.53527 9.27468 3.38584 11.3882 2.59957C13.8311 1.78947 16.3918 1.39188 18.9653 1.42309H58.3496V12.6277L66.6481 1.42309L79.4844 1.43711Z" fill="#CF9E69"/>
<path d="M145.844 55.6537H174.668L167.189 46.0737V17.761C167.189 17.5089 167.189 17.2287 167.189 16.9766C167.175 16.04 167.109 15.1049 166.992 14.1755C166.95 13.8954 166.908 13.6223 166.852 13.3491C166.105 9.7207 164.176 6.44243 161.366 4.0273C158.557 1.61217 155.027 0.196438 151.327 0.00161517C151.026 0.00161517 150.753 0.00161517 150.459 0.00161517C149.136 0.0125276 147.818 0.169873 146.53 0.470798L146.278 0.533843C145.907 0.610874 145.578 0.708883 145.178 0.806923C143.427 1.27189 141.749 1.979 140.192 2.90779C138.63 3.79054 137.158 4.82246 135.795 5.98909C134.492 7.14048 133.318 8.42952 132.293 9.83367C131.112 7.16871 129.248 4.86309 126.889 3.1501C124.53 1.43711 121.761 0.377535 118.862 0.0786368C118.63 0.0786368 118.392 0.0366211 118.161 0.0366211C117.835 0.00708952 117.508 -0.00459088 117.181 0.00161517C116.887 0.00161517 116.593 0.00161517 116.298 0.00161517C113.243 0.0796251 110.247 0.870997 107.552 2.31256C104.752 3.87788 102.26 5.94003 100.199 8.39809V1.39519H79.4842L86.9283 10.9822V46.0737L79.4702 55.6537H107.678L100.199 46.0737V12.6768C100.633 12.2287 101.06 11.7945 101.515 11.3813C101.732 11.1852 101.95 10.9891 102.16 10.8351C102.456 10.5625 102.772 10.3121 103.105 10.0858L103.28 9.96673C104.84 8.91365 106.646 8.28279 108.522 8.13565C110.398 7.9885 112.281 8.33009 113.985 9.12714C115.69 9.92419 117.159 11.1495 118.25 12.6835C119.34 14.2175 120.014 16.0079 120.206 17.88C120.241 18.2512 120.262 18.6293 120.262 19.0005C120.304 19.8058 120.325 20.6462 120.325 21.5496V46.0597L112.846 55.6397H141.166L133.694 46.0737V17.761C133.694 17.5299 133.694 17.2708 133.694 17.0607C133.694 16.0159 133.603 14.9731 133.421 13.9444C133.393 13.7322 133.353 13.5218 133.302 13.3141C133.324 13.2851 133.349 13.2591 133.379 13.2371C133.694 12.8799 134.03 12.5368 134.345 12.2147C134.903 11.6656 135.492 11.1488 136.11 10.667C136.326 10.4621 136.561 10.2769 136.81 10.1138C136.948 10.0154 137.09 9.9242 137.237 9.84068C138.963 8.74601 140.964 8.16545 143.008 8.16698C144.774 8.16785 146.513 8.59714 148.077 9.418C149.64 10.2389 150.982 11.4268 151.985 12.88C153.067 14.5548 153.676 16.4901 153.75 18.4823C153.869 20.5481 153.925 22.628 153.925 24.6868V46.0737L145.844 55.6537Z" fill="#CF9E69"/>
<path d="M181.398 4.89654C181.389 4.21205 181.581 3.54007 181.951 2.96373C182.335 2.39263 182.874 1.94317 183.505 1.66821C184.233 1.34739 185.022 1.18962 185.816 1.206C186.552 1.19004 187.281 1.33836 187.952 1.64017C188.537 1.90867 189.034 2.33569 189.388 2.87269C189.75 3.44948 189.955 4.11094 189.983 4.79148H188.232C188.225 4.50803 188.158 4.22925 188.038 3.97258C187.917 3.71591 187.745 3.48686 187.532 3.29986C187.041 2.92574 186.433 2.73727 185.816 2.76767C185.126 2.73503 184.444 2.93202 183.877 3.3279C183.646 3.50596 183.462 3.73717 183.34 4.00177C183.218 4.26638 183.162 4.55652 183.176 4.84752C183.155 5.30472 183.313 5.75219 183.617 6.09405C183.988 6.45324 184.455 6.6966 184.962 6.79434L187.063 7.29152C187.958 7.44145 188.785 7.86466 189.43 8.50305C189.968 9.10891 190.252 9.89914 190.221 10.7089C190.24 11.4093 190.046 12.099 189.665 12.6867C189.284 13.2744 188.733 13.7325 188.085 14.0003C186.588 14.5967 184.919 14.5967 183.421 14.0003C182.796 13.7438 182.258 13.3117 181.873 12.7562C181.488 12.2007 181.272 11.5457 181.25 10.87H183.022C183.021 11.1561 183.089 11.4382 183.219 11.6928C183.35 11.9474 183.539 12.1671 183.772 12.3336C184.341 12.7173 185.019 12.9065 185.704 12.8729C186.425 12.91 187.138 12.7109 187.735 12.3056C187.974 12.1355 188.167 11.9091 188.298 11.6465C188.429 11.3839 188.493 11.0932 188.484 10.8C188.504 10.3467 188.354 9.90245 188.064 9.55349C187.696 9.18748 187.224 8.94309 186.713 8.8532L184.612 8.37C183.713 8.20992 182.886 7.7743 182.245 7.12346C181.694 6.51302 181.392 5.71862 181.398 4.89654Z" fill="#CF9E69"/>
<path d="M193.94 14.2313H192.203V1.39502H193.94V6.91331H200.291V1.39502H202.028V14.2173H200.291V8.53799H193.94V14.2313Z" fill="#CF9E69"/>
<path d="M206.391 14.2313H204.654V1.39498H209.493C210.656 1.32716 211.804 1.69128 212.715 2.41742C213.101 2.77103 213.406 3.20505 213.607 3.68901C213.807 4.17296 213.9 4.6951 213.877 5.21858C213.903 6.02004 213.675 6.80913 213.226 7.4735C212.775 8.10032 212.13 8.5607 211.391 8.78304L213.996 14.1893H212.063L209.675 9.1192H206.391V14.2313ZM206.391 2.97064V7.62057H209.514C210.195 7.66271 210.865 7.43928 211.384 6.9973C211.617 6.77674 211.8 6.50888 211.921 6.21174C212.042 5.91461 212.097 5.59506 212.084 5.27458C212.102 4.95563 212.048 4.63678 211.927 4.34121C211.806 4.04564 211.62 3.78077 211.384 3.56587C210.853 3.1485 210.189 2.93712 209.514 2.97064H206.391Z" fill="#CF9E69"/>
<path d="M217.813 1.39502V14.2173H216.097V1.39502H217.813Z" fill="#CF9E69"/>
<path d="M222.336 14.2313H220.635V1.39502H222.336L226.748 12.1795L231.167 1.39502H232.904V14.2173H231.202V7.60659C231.202 7.17941 231.202 6.81526 231.202 6.50713C231.202 6.199 231.202 5.92589 231.202 5.68079C231.202 5.43569 231.202 5.20459 231.251 4.9805L227.512 14.2173H225.88L222.154 5.01551C222.213 5.48023 222.245 5.94779 222.252 6.41609C222.252 7.05335 222.252 7.8167 222.252 8.72007L222.336 14.2313Z" fill="#CF9E69"/>
<path d="M236.594 14.2313H234.788L239.466 1.39502H241.398L246.097 14.2173H244.277L243.121 11.031H237.729L236.594 14.2313ZM240.215 4.19618L238.261 9.55342H242.603L240.607 4.19618C240.572 4.07013 240.53 3.93707 240.488 3.79701C240.446 3.68616 240.415 3.57115 240.397 3.45387C240.397 3.55191 240.341 3.66395 240.306 3.79701C240.271 3.93006 240.257 4.04912 240.215 4.19618Z" fill="#CF9E69"/>
<path d="M252.218 14.2316H247.981V1.39523H252.183C253.355 1.37117 254.513 1.65102 255.544 2.20755C256.494 2.72778 257.276 3.50745 257.799 4.45549C258.326 5.49506 258.601 6.64425 258.601 7.80987C258.601 8.97549 258.326 10.1247 257.799 11.1643C257.282 12.1078 256.511 12.8868 255.572 13.4122C254.546 13.9767 253.389 14.2594 252.218 14.2316ZM249.711 2.22858V13.4332L248.905 12.5999H252.092C252.955 12.6231 253.81 12.4203 254.571 12.0116C255.257 11.6297 255.817 11.0552 256.181 10.3589C256.564 9.55995 256.763 8.68533 256.763 7.7994C256.763 6.91347 256.564 6.0388 256.181 5.23981C255.814 4.53544 255.246 3.95555 254.55 3.57312C253.772 3.16281 252.901 2.96023 252.022 2.9849H248.905L249.711 2.22858Z" fill="#CF9E69"/>
<path d="M183.884 35.0091H182.147V22.1518H186.986C188.148 22.082 189.295 22.4436 190.207 23.1672C190.594 23.5211 190.898 23.9552 191.099 24.4391C191.299 24.923 191.392 25.445 191.37 25.9684C191.395 26.7699 191.168 27.5589 190.719 28.2233C190.268 28.8501 189.623 29.3105 188.884 29.5329L191.496 34.9461H189.556L187.168 29.876H183.884V35.0091ZM183.884 23.7485V28.3914H187.007C187.686 28.4355 188.357 28.2146 188.877 27.7751C189.103 27.5515 189.28 27.2822 189.394 26.9852C189.509 26.6883 189.559 26.3703 189.542 26.0524C189.56 25.7334 189.507 25.4144 189.385 25.1188C189.264 24.8231 189.078 24.5583 188.842 24.3437C188.313 23.9211 187.647 23.7091 186.972 23.7485H183.884Z" fill="#CF9E69"/>
<path d="M194.633 35.0091H192.819L197.504 22.1868H199.437L204.136 35.0091H202.308L201.16 31.8158H195.789L194.633 35.0091ZM198.247 24.9529L196.3 30.3101H200.642L198.674 24.9529C198.639 24.8199 198.597 24.6868 198.555 24.5538C198.51 24.4437 198.479 24.3284 198.464 24.2106C198.464 24.3017 198.408 24.4207 198.373 24.5538C198.338 24.6868 198.296 24.7849 198.247 24.9179V24.9529Z" fill="#CF9E69"/>
<path d="M205.06 31.4097V30.8074H206.748V31.4447C206.726 32.0087 206.91 32.5615 207.266 32.9993C207.47 33.2122 207.718 33.3773 207.993 33.4827C208.268 33.588 208.563 33.631 208.856 33.6086C209.15 33.6341 209.446 33.5925 209.721 33.4869C209.996 33.3814 210.244 33.2147 210.446 32.9993C210.798 32.5385 210.977 31.9682 210.95 31.3887V22.1519H212.687V31.4237C212.704 32.119 212.54 32.8069 212.21 33.4195C211.899 33.9759 211.432 34.4289 210.866 34.7221C210.245 35.0407 209.554 35.1995 208.856 35.1842C208.126 35.2144 207.401 35.0501 206.755 34.7081C206.2 34.4032 205.751 33.9367 205.467 33.3705C205.18 32.7577 205.04 32.0861 205.06 31.4097Z" fill="#CF9E69"/>
<path d="M221.076 35.17C219.956 35.1971 218.85 34.9109 217.883 34.3437C216.98 33.7882 216.252 32.9897 215.782 32.0397C215.249 30.951 214.987 29.7499 215.019 28.5383C214.987 27.3243 215.256 26.1213 215.803 25.0368C216.294 24.0731 217.046 23.2673 217.974 22.7119C218.86 22.2188 219.848 21.9364 220.861 21.8866C221.873 21.8368 222.884 22.021 223.814 22.4248C224.577 22.7652 225.247 23.284 225.768 23.9374C226.293 24.603 226.64 25.391 226.776 26.2273H224.914C224.712 25.4276 224.227 24.7283 223.548 24.2595C222.839 23.7777 221.996 23.5326 221.139 23.5592C220.342 23.5435 219.557 23.7574 218.877 24.1755C218.223 24.5943 217.703 25.1922 217.379 25.8982C217.027 26.723 216.846 27.6103 216.846 28.5068C216.846 29.4033 217.027 30.2905 217.379 31.1153C217.701 31.8263 218.225 32.4275 218.884 32.845C219.56 33.2643 220.344 33.4784 221.139 33.4613C222.01 33.4802 222.867 33.2362 223.597 32.761C224.274 32.3173 224.771 31.647 224.998 30.8702H226.84C226.68 31.6944 226.311 32.4636 225.768 33.1042C225.223 33.7472 224.538 34.2573 223.765 34.5958C222.92 34.9751 222.003 35.1709 221.076 35.17Z" fill="#CF9E69"/>
<path d="M230.67 35.0092H228.933V22.1519H230.67V27.6631H237.021V22.1519H238.758V35.0092H237.021V29.3158H230.67V35.0092Z" fill="#CF9E69"/>
<path d="M242.624 35.0092H240.817L245.509 22.1519H247.442L252.134 35.0092H250.306L249.15 31.8159H243.758L242.624 35.0092ZM246.244 24.953L244.29 30.3102H248.639L246.671 24.953L246.545 24.5538C246.504 24.4427 246.473 24.3278 246.454 24.2107C246.454 24.3017 246.405 24.4208 246.363 24.5538C246.321 24.6869 246.286 24.785 246.244 24.918V24.953Z" fill="#CF9E69"/>
<path d="M255.93 35.0092H254.186V22.1519H255.93L262.968 32.7893H262.491V22.1519H264.228V35.0092H262.491L255.447 24.3648H255.93V35.0092Z" fill="#CF9E69"/>
<path d="M271.42 35.0089H267.218V22.1516H271.385C272.556 22.1235 273.715 22.401 274.746 22.9569C275.703 23.4746 276.493 24.2544 277.022 25.2049C277.549 26.2432 277.824 27.3912 277.824 28.5557C277.824 29.7202 277.549 30.8683 277.022 31.9066C276.509 32.8518 275.739 33.6332 274.802 34.1616C273.77 34.74 272.603 35.0326 271.42 35.0089ZM268.913 22.9989V34.2036L268.101 33.3842H271.294C272.155 33.411 273.007 33.2105 273.766 32.803C274.453 32.4167 275.015 31.8405 275.384 31.1433C275.784 30.3572 275.982 29.4833 275.958 28.6012C275.982 27.708 275.785 26.8225 275.384 26.0242C275.014 25.3213 274.447 24.7419 273.752 24.3575C272.972 23.9534 272.102 23.7535 271.224 23.7763H268.129L268.913 22.9989Z" fill="#CF9E69"/>
<path d="M281.749 35.0091H280.013V22.1518H284.852C286.014 22.082 287.161 22.4436 288.073 23.1672C288.459 23.5211 288.764 23.9552 288.964 24.4391C289.165 24.923 289.258 25.445 289.236 25.9684C289.261 26.7699 289.033 27.5589 288.584 28.2233C288.134 28.8501 287.489 29.3105 286.75 29.5329L289.362 34.9461H287.422L285.034 29.876H281.749V35.0091ZM281.749 23.7485V28.3914H284.873C285.552 28.4355 286.222 28.2146 286.742 27.7751C286.969 27.5515 287.145 27.2822 287.26 26.9852C287.375 26.6883 287.425 26.3703 287.408 26.0524C287.426 25.7334 287.372 25.4144 287.251 25.1188C287.13 24.8231 286.944 24.5583 286.707 24.3437C286.179 23.9211 285.513 23.7091 284.838 23.7485H281.749Z" fill="#CF9E69"/>
<path d="M292.498 35.0091H290.685L295.37 22.1868H297.33L302.001 35.0091H300.173L299.025 31.8158H293.633L292.498 35.0091ZM296.112 24.9529L294.165 30.3101H298.507L296.539 24.9529C296.504 24.8199 296.462 24.6868 296.42 24.5538C296.375 24.4437 296.345 24.3284 296.329 24.2106C296.329 24.3017 296.273 24.4207 296.238 24.5538C296.203 24.6868 296.161 24.7849 296.112 24.9179V24.9529Z" fill="#CF9E69"/>
<path d="M183.883 55.7095H182.182V42.8872H183.883L188.302 53.6717L192.714 42.8872H194.388V55.7095H192.686V49.0988C192.686 48.6716 192.686 48.3074 192.686 47.9993C192.686 47.6912 192.686 47.4181 192.721 47.173C192.756 46.9279 192.721 46.6968 192.77 46.4727L189.03 55.7095H187.399L183.673 46.5077C183.735 46.9721 183.768 47.4398 183.771 47.9083C183.771 48.5455 183.771 49.3089 183.771 50.2123L183.883 55.7095Z" fill="#CF9E69"/>
<path d="M199.493 42.8872V55.7095H197.756V42.8872H199.493Z" fill="#CF9E69"/>
<path d="M202.091 46.3467C202.081 45.663 202.271 44.991 202.638 44.4139C203.025 43.8457 203.563 43.397 204.192 43.1184C204.922 42.7975 205.713 42.6397 206.51 42.6562C207.246 42.6412 207.975 42.7895 208.646 43.0904C209.229 43.3617 209.725 43.7881 210.082 44.3229C210.444 44.8997 210.649 45.5611 210.677 46.2417H208.919C208.912 45.9582 208.846 45.6792 208.725 45.4225C208.605 45.1658 208.432 44.9368 208.219 44.7501C207.725 44.376 207.115 44.1876 206.496 44.2179C205.808 44.1841 205.127 44.3813 204.563 44.7781C204.333 44.9566 204.149 45.1878 204.028 45.4523C203.906 45.7168 203.849 46.0068 203.863 46.2977C203.84 46.7551 203.999 47.2032 204.304 47.5443C204.678 47.9023 205.148 48.1454 205.656 48.2445L207.757 48.7417C208.654 48.8916 209.483 49.3147 210.131 49.9533C210.667 50.5598 210.948 51.3502 210.915 52.1591C210.935 52.8702 210.739 53.5706 210.355 54.169C209.967 54.7486 209.42 55.2035 208.779 55.4785C208.025 55.8013 207.211 55.9589 206.391 55.9407C205.611 55.9551 204.836 55.8073 204.115 55.5066C203.497 55.2437 202.964 54.8146 202.575 54.267C202.19 53.709 201.972 53.0534 201.944 52.3762H203.716C203.714 52.6618 203.78 52.9437 203.909 53.1984C204.038 53.453 204.227 53.673 204.458 53.8399C205.028 54.2217 205.706 54.4107 206.391 54.3791C207.112 54.4183 207.826 54.219 208.422 53.8118C208.627 53.6544 208.798 53.4577 208.925 53.2333C209.053 53.0089 209.134 52.7612 209.165 52.5049C209.196 52.2486 209.175 51.9888 209.104 51.7406C209.033 51.4924 208.913 51.2609 208.751 51.0597C208.387 50.6923 207.917 50.4476 207.407 50.3594L205.306 49.8762C204.407 49.7144 203.581 49.279 202.939 48.6297C202.374 48.0054 202.071 47.1882 202.091 46.3467Z" fill="#CF9E69"/>
<path d="M212.687 46.3467C212.673 45.6616 212.866 44.9882 213.24 44.4139C213.623 43.8444 214.159 43.3952 214.787 43.1184C215.517 42.7975 216.308 42.6397 217.105 42.6562C217.841 42.6412 218.57 42.7895 219.241 43.0904C219.824 43.3617 220.321 43.7881 220.677 44.3229C221.039 44.8997 221.244 45.5611 221.272 46.2417H219.514C219.507 45.9582 219.441 45.6792 219.321 45.4225C219.2 45.1658 219.028 44.9368 218.814 44.7501C218.32 44.376 217.71 44.1876 217.091 44.2179C216.403 44.1841 215.723 44.3813 215.159 44.7781C214.928 44.9566 214.745 45.1878 214.623 45.4523C214.501 45.7168 214.444 46.0068 214.458 46.2977C214.446 46.5249 214.48 46.7521 214.557 46.9662C214.634 47.1802 214.753 47.3768 214.907 47.5443C215.277 47.9034 215.744 48.1468 216.251 48.2445L218.352 48.7417C219.249 48.8916 220.078 49.3147 220.726 49.9533C221.262 50.5598 221.543 51.3502 221.51 52.1591C221.53 52.8702 221.335 53.5706 220.95 54.169C220.562 54.7486 220.015 55.2035 219.374 55.4785C218.621 55.8013 217.806 55.9589 216.986 55.9407C216.206 55.9551 215.431 55.8073 214.71 55.5066C214.092 55.2437 213.559 54.8146 213.17 54.267C212.785 53.709 212.567 53.0534 212.54 52.3762H214.311C214.309 52.6618 214.375 52.9437 214.504 53.1984C214.634 53.453 214.822 53.673 215.054 53.8399C215.624 54.2217 216.301 54.4107 216.986 54.3791C217.707 54.4183 218.421 54.219 219.017 53.8118C219.222 53.6544 219.393 53.4577 219.52 53.2333C219.648 53.0089 219.73 52.7612 219.76 52.5049C219.791 52.2486 219.77 51.9888 219.699 51.7406C219.628 51.4924 219.508 51.2609 219.346 51.0597C218.982 50.6923 218.512 50.4476 218.002 50.3594L215.901 49.8762C215.002 49.7144 214.176 49.279 213.534 48.6297C212.969 48.0054 212.666 47.1882 212.687 46.3467Z" fill="#CF9E69"/>
<path d="M225.761 42.8872V55.7095H224.017V42.8872H225.761Z" fill="#CF9E69"/>
<path d="M240.495 49.2951C240.521 50.4915 240.25 51.6756 239.704 52.7405C239.209 53.7092 238.455 54.5214 237.526 55.0865C236.55 55.6588 235.435 55.9497 234.305 55.9268C233.187 55.9471 232.086 55.6561 231.125 55.0865C230.198 54.5222 229.444 53.7128 228.947 52.7475C228.431 51.6711 228.163 50.4924 228.163 49.2986C228.163 48.1048 228.431 46.9261 228.947 45.8496C229.45 44.866 230.22 44.0444 231.169 43.4795C232.118 42.9145 233.207 42.6291 234.312 42.6563C235.44 42.6339 236.551 42.9301 237.519 43.5107C238.443 44.0774 239.193 44.8863 239.69 45.8496C240.241 46.913 240.518 48.0974 240.495 49.2951ZM238.667 49.2951C238.689 48.3947 238.505 47.5011 238.128 46.683C237.797 45.9734 237.269 45.3733 236.608 44.9533C236.106 44.6297 235.541 44.4169 234.95 44.3291C234.359 44.2413 233.756 44.2806 233.181 44.4443C232.607 44.608 232.074 44.8923 231.618 45.2784C231.162 45.6644 230.793 46.1433 230.537 46.683C230.181 47.5067 229.998 48.3944 229.998 49.2916C229.998 50.1888 230.181 51.0764 230.537 51.9002C230.871 52.6095 231.398 53.2111 232.057 53.6369C232.745 54.0469 233.531 54.2635 234.333 54.2635C235.134 54.2635 235.92 54.0469 236.608 53.6369C237.269 53.2073 237.796 52.6007 238.128 51.8861C238.505 51.0756 238.69 50.1888 238.667 49.2951Z" fill="#CF9E69"/>
<path d="M244.627 55.7095H242.89V42.8872H244.627L251.672 53.5316H251.189V42.8872H252.925V55.7095H251.189L244.151 45.0721H244.627V55.7095Z" fill="#CF9E69"/>
<path d="M265.698 55.7097H261.461V42.8874H265.663C266.835 42.8634 267.993 43.1432 269.025 43.6997C269.974 44.22 270.756 44.9996 271.279 45.9477C271.807 46.9872 272.081 48.1364 272.081 49.3021C272.081 50.4677 271.807 51.6169 271.279 52.6565C270.763 53.6 269.991 54.379 269.053 54.9044C268.025 55.464 266.868 55.7419 265.698 55.7097ZM263.198 43.7067V54.9114L262.379 54.0991H265.572C266.436 54.1223 267.29 53.9195 268.051 53.5108C268.736 53.1269 269.296 52.5529 269.662 51.8581C270.063 51.0696 270.26 50.1933 270.236 49.3091C270.261 48.418 270.063 47.5349 269.662 46.739C269.294 46.0346 268.727 45.4547 268.03 45.0723C267.252 44.662 266.381 44.4594 265.502 44.4841H262.379L263.198 43.7067Z" fill="#CF9E69"/>
<path d="M282.442 55.7095H274.62V42.8872H282.442V44.4839H275.559L276.357 43.7836V48.4895H281.84V50.0302H276.357V54.8201L275.559 54.1198H282.442V55.7095Z" fill="#CF9E69"/>
<path d="M287.05 42.8872V55.7095H285.313V42.8872H287.05ZM285.615 55.7095V54.0989H292.695V55.7095H285.615Z" fill="#CF9E69"/>
<path d="M296.665 55.7095H294.929V42.8872H296.665V48.4055H303.017V42.8872H304.754V55.7095H303.017V50.0162H296.665V55.7095Z" fill="#CF9E69"/>
<path d="M309.467 42.8872V55.7095H307.73V42.8872H309.467Z" fill="#CF9E69"/>
</svg>
