<svg width="15" height="16" viewBox="0 0 15 16" fill="none" xmlns="http://www.w3.org/2000/svg">
<path d="M7.32909 8.70008L7.23669 5.52488L7.21989 4.73528H7.91709L7.90029 5.52488L7.80789 8.70008H7.32909ZM7.57269 10.4641C7.43269 10.4641 7.31229 10.4165 7.21149 10.3213C7.11629 10.2205 7.06869 10.0945 7.06869 9.94328C7.06869 9.78088 7.11629 9.65208 7.21149 9.55688C7.31229 9.45608 7.43269 9.40568 7.57269 9.40568C7.70709 9.40568 7.82189 9.45608 7.91709 9.55688C8.01789 9.65208 8.06829 9.78088 8.06829 9.94328C8.06829 10.0945 8.01789 10.2205 7.91709 10.3213C7.82189 10.4165 7.70709 10.4641 7.57269 10.4641Z" fill="#A61E1E"/>
<path d="M6.54233 2.45318C6.93886 1.7173 7.99447 1.7173 8.39101 2.45318L12.5126 10.1019C12.8896 10.8015 12.3829 11.65 11.5883 11.65H3.34507C2.55042 11.65 2.04377 10.8015 2.42073 10.1019L6.54233 2.45318Z" stroke="#A61E1E" stroke-width="0.7"/>
</svg>
