<svg width="11" height="12" viewBox="0 0 11 12" fill="none" xmlns="http://www.w3.org/2000/svg">
<path id="Vector" d="M0.984538 0.231333L9.81987 5.31145C9.89623 5.35563 9.95938 5.41796 10.0032 5.49238C10.0471 5.56681 10.0701 5.65082 10.0701 5.73628C10.0701 5.82174 10.0471 5.90576 10.0032 5.98019C9.95938 6.05461 9.89623 6.11694 9.81987 6.16112L0.984538 11.2412C0.905971 11.2866 0.816245 11.3111 0.724533 11.3124C0.632821 11.3136 0.54241 11.2915 0.462542 11.2483C0.382673 11.2051 0.316209 11.1423 0.269945 11.0664C0.223681 10.9906 0.199276 10.9043 0.199222 10.8164V0.65815C0.198908 0.570106 0.223046 0.483567 0.269161 0.407411C0.315275 0.331254 0.381706 0.268221 0.461638 0.224778C0.541569 0.181335 0.632125 0.159047 0.724014 0.160199C0.815904 0.161351 0.90582 0.185902 0.984538 0.231333Z" fill="#49378D"/>
</svg>
