<svg width="30" height="31" viewBox="0 0 30 31" fill="none" xmlns="http://www.w3.org/2000/svg">
<circle cx="15" cy="15.3477" r="15" fill="#CF9E69"/>
<path d="M21.5035 14.2742L16.5692 9.34003C16.5003 9.27098 16.4124 9.22394 16.3167 9.20485C16.221 9.18575 16.1217 9.19547 16.0316 9.23278C15.9414 9.27008 15.8643 9.33328 15.81 9.4144C15.7558 9.49552 15.7268 9.59091 15.7267 9.68851V12.1772C14.1268 12.3141 12.3597 13.0974 10.906 14.3304C9.1556 15.8156 8.06575 17.7294 7.83693 19.7191C7.81905 19.8738 7.85041 20.0302 7.92656 20.1661C8.00271 20.3019 8.11976 20.4102 8.26106 20.4757C8.40236 20.5412 8.5607 20.5604 8.71355 20.5306C8.86641 20.5009 9.00598 20.4237 9.11242 20.31C9.79088 19.5878 12.2049 17.3038 15.7267 17.1028V19.5569C15.7268 19.6545 15.7558 19.7499 15.81 19.831C15.8643 19.9121 15.9414 19.9754 16.0316 20.0127C16.1217 20.05 16.221 20.0597 16.3167 20.0406C16.4124 20.0215 16.5003 19.9745 16.5692 19.9054L21.5035 14.9712C21.5957 14.8787 21.6476 14.7534 21.6476 14.6227C21.6476 14.4921 21.5957 14.3667 21.5035 14.2742ZM16.7136 18.3659V16.5964C16.7136 16.4655 16.6616 16.34 16.5691 16.2475C16.4765 16.155 16.351 16.103 16.2202 16.103C14.4882 16.103 12.8014 16.5551 11.2064 17.4476C10.394 17.9041 9.63718 18.453 8.95083 19.0832C9.30856 17.6128 10.2103 16.2146 11.5444 15.0828C12.9765 13.8684 14.7245 13.1425 16.2202 13.1425C16.351 13.1425 16.4765 13.0905 16.5691 12.9979C16.6616 12.9054 16.7136 12.7799 16.7136 12.649V10.8801L20.4568 14.6227L16.7136 18.3659Z" fill="#FDFDFD"/>
</svg>
