<svg width="1440" height="120" viewBox="0 0 1440 120" fill="none" xmlns="http://www.w3.org/2000/svg">
<g opacity="0.5">
<g opacity="0.7">
<path d="M-10.1607 65.9717L-28.7905 89.8178L-10.1607 113.664L8.46904 89.8178L-10.1607 65.9717Z" fill="#EFD1A9"/>
<path d="M82.412 65.9717L63.7822 89.8178L82.412 113.664L101.042 89.8178L82.412 65.9717Z" fill="#EFD1A9"/>
<path d="M174.985 65.9717L156.355 89.8178L174.985 113.664L193.615 89.8178L174.985 65.9717Z" fill="#EFD1A9"/>
<path d="M267.557 65.9717L248.927 89.8178L267.557 113.664L286.187 89.8178L267.557 65.9717Z" fill="#EFD1A9"/>
<path d="M360.13 65.9717L341.5 89.8178L360.13 113.664L378.76 89.8178L360.13 65.9717Z" fill="#EFD1A9"/>
<path d="M452.703 65.9717L434.073 89.8178L452.703 113.664L471.333 89.8178L452.703 65.9717Z" fill="#EFD1A9"/>
<path d="M545.275 65.9717L526.646 89.8178L545.275 113.664L563.905 89.8178L545.275 65.9717Z" fill="#EFD1A9"/>
<path d="M637.848 65.9717L619.219 89.8178L637.848 113.664L656.478 89.8178L637.848 65.9717Z" fill="#EFD1A9"/>
<path d="M730.421 65.9717L711.791 89.8178L730.421 113.664L749.051 89.8178L730.421 65.9717Z" fill="#EFD1A9"/>
<path d="M822.994 65.9717L804.364 89.8178L822.994 113.664L841.623 89.8178L822.994 65.9717Z" fill="#EFD1A9"/>
<path d="M915.566 65.9717L896.937 89.8178L915.566 113.664L934.196 89.8178L915.566 65.9717Z" fill="#EFD1A9"/>
<path d="M1008.14 65.9717L989.509 89.8178L1008.14 113.664L1026.77 89.8178L1008.14 65.9717Z" fill="#EFD1A9"/>
<path d="M1100.71 65.9717L1082.08 89.8178L1100.71 113.664L1119.34 89.8178L1100.71 65.9717Z" fill="#EFD1A9"/>
<path d="M1193.28 65.9717L1174.65 89.8178L1193.28 113.664L1211.91 89.8178L1193.28 65.9717Z" fill="#EFD1A9"/>
<path d="M1285.86 65.9717L1267.23 89.8178L1285.86 113.664L1304.49 89.8178L1285.86 65.9717Z" fill="#EFD1A9"/>
<path d="M1378.43 65.9717L1359.8 89.8178L1378.43 113.664L1397.06 89.8178L1378.43 65.9717Z" fill="#EFD1A9"/>
</g>
<g opacity="0.4">
<path d="M50.9747 9L37.7466 25.932L50.9747 42.8639L64.2028 25.932L50.9747 9Z" fill="#EFD1A9"/>
<path d="M141.041 9L127.813 25.932L141.041 42.8639L154.269 25.932L141.041 9Z" fill="#EFD1A9"/>
<path d="M231.107 9L217.879 25.932L231.107 42.8639L244.335 25.932L231.107 9Z" fill="#EFD1A9"/>
<path d="M321.174 9L307.946 25.932L321.174 42.8639L334.402 25.932L321.174 9Z" fill="#EFD1A9"/>
<path d="M411.24 9L398.012 25.932L411.24 42.8639L424.468 25.932L411.24 9Z" fill="#EFD1A9"/>
<path d="M501.306 9L488.078 25.932L501.306 42.8639L514.534 25.932L501.306 9Z" fill="#EFD1A9"/>
<path d="M591.373 9L578.145 25.932L591.373 42.8639L604.601 25.932L591.373 9Z" fill="#EFD1A9"/>
<path d="M681.439 9L668.211 25.932L681.439 42.8639L694.667 25.932L681.439 9Z" fill="#EFD1A9"/>
<path d="M771.505 9L758.277 25.932L771.505 42.8639L784.734 25.932L771.505 9Z" fill="#EFD1A9"/>
<path d="M861.572 9L848.344 25.932L861.572 42.8639L874.8 25.932L861.572 9Z" fill="#EFD1A9"/>
<path d="M951.638 9L938.41 25.932L951.638 42.8639L964.866 25.932L951.638 9Z" fill="#EFD1A9"/>
<path d="M1041.7 9L1028.48 25.932L1041.7 42.8639L1054.93 25.932L1041.7 9Z" fill="#EFD1A9"/>
<path d="M1131.77 9L1118.54 25.932L1131.77 42.8639L1145 25.932L1131.77 9Z" fill="#EFD1A9"/>
<path d="M1221.84 9L1208.61 25.932L1221.84 42.8639L1235.07 25.932L1221.84 9Z" fill="#EFD1A9"/>
<path d="M1311.9 9L1298.68 25.932L1311.9 42.8639L1325.13 25.932L1311.9 9Z" fill="#EFD1A9"/>
<path d="M1401.97 9L1388.74 25.932L1401.97 42.8639L1415.2 25.932L1401.97 9Z" fill="#EFD1A9"/>
</g>
<path d="M720.425 0.641602L702.612 23.5L720.425 46.3583L738.237 23.5L720.425 0.641602Z" fill="#CF9E69"/>
</g>
</svg>
