<svg width="33" height="33" viewBox="0 0 33 33" fill="none" xmlns="http://www.w3.org/2000/svg">
<circle cx="16.6193" cy="16.2648" r="16.2648" fill="#CF9E69"/>
<g clip-path="url(#clip0_1149_19706)">
<path d="M25.1628 11.7406C25.0665 11.3558 24.8703 11.0032 24.5941 10.7184C24.3179 10.4337 23.9714 10.2269 23.5897 10.1189C22.195 9.77832 16.6163 9.77832 16.6163 9.77832C16.6163 9.77832 11.0375 9.77832 9.64283 10.1513C9.26111 10.2593 8.91465 10.4661 8.63845 10.7509C8.36224 11.0356 8.16607 11.3882 8.06975 11.773C7.8145 13.1885 7.68965 14.6243 7.69675 16.0625C7.68765 17.5116 7.81252 18.9584 8.06975 20.3844C8.17594 20.7573 8.37651 21.0965 8.65207 21.3692C8.92763 21.6419 9.26887 21.839 9.64283 21.9413C11.0375 22.3143 16.6163 22.3143 16.6163 22.3143C16.6163 22.3143 22.195 22.3143 23.5897 21.9413C23.9714 21.8333 24.3179 21.6265 24.5941 21.3417C24.8703 21.057 25.0665 20.7044 25.1628 20.3196C25.4161 18.9148 25.5409 17.4899 25.5358 16.0625C25.5449 14.6135 25.42 13.1667 25.1628 11.7406V11.7406Z" stroke="white" stroke-width="1.20122" stroke-linecap="round" stroke-linejoin="round"/>
<path d="M14.792 18.7142L19.4545 16.0627L14.792 13.4111V18.7142Z" stroke="white" stroke-width="1.20122" stroke-linecap="round" stroke-linejoin="round"/>
</g>
<defs>
<clipPath id="clip0_1149_19706">
<rect width="19.4608" height="19.4608" fill="white" transform="translate(6.88574 6.53516)"/>
</clipPath>
</defs>
</svg>
